<?xml version="1.0" encoding="utf-8" standalone="no"?>
<!DOCTYPE svg PUBLIC "-//W3C//DTD SVG 1.1//EN"
  "http://www.w3.org/Graphics/SVG/1.1/DTD/svg11.dtd">
<svg xmlns:xlink="http://www.w3.org/1999/xlink" width="265.5648pt" height="377.28pt" viewBox="0 0 265.5648 377.28" xmlns="http://www.w3.org/2000/svg" version="1.1">
 <metadata>
  <rdf:RDF xmlns:dc="http://purl.org/dc/elements/1.1/" xmlns:cc="http://creativecommons.org/ns#" xmlns:rdf="http://www.w3.org/1999/02/22-rdf-syntax-ns#">
   <cc:Work>
    <dc:type rdf:resource="http://purl.org/dc/dcmitype/StillImage"/>
    <dc:date>2026-04-15T16:19:07.323853</dc:date>
    <dc:format>image/svg+xml</dc:format>
    <dc:creator>
     <cc:Agent>
      <dc:title>Matplotlib v3.10.8, https://matplotlib.org/</dc:title>
     </cc:Agent>
    </dc:creator>
   </cc:Work>
  </rdf:RDF>
 </metadata>
 <defs>
  <style type="text/css">*{stroke-linejoin: round; stroke-linecap: butt}</style>
 </defs>
 <g id="figure_1">
  <g id="patch_1">
   <path d="M 0 377.28
L 265.5648 377.28
L 265.5648 0
L 0 0
z
" style="fill: #ffffff"/>
  </g>
  <g id="axes_1">
   <g id="patch_2">
    <path d="M 132.7824 311.616
C 138.510787 311.616 144.005325 309.340088 148.055906 305.289506
C 152.106488 301.238925 154.3824 295.744387 154.3824 290.016
C 154.3824 284.287613 152.106488 278.793075 148.055906 274.742494
C 144.005325 270.691912 138.510787 268.416 132.7824 268.416
C 127.054013 268.416 121.559475 270.691912 117.508894 274.742494
C 113.458312 278.793075 111.1824 284.287613 111.1824 290.016
C 111.1824 295.744387 113.458312 301.238925 117.508894 305.289506
C 121.559475 309.340088 127.054013 311.616 132.7824 311.616
L 132.7824 311.616
z
" clip-path="url(#pfabc1a432d)" style="fill: none; stroke: #000000; stroke-width: 2; stroke-linejoin: miter"/>
   </g>
   <g id="line2d_1">
    <path d="M 132.7824 344.016
L 132.7824 361.296
L 121.9824 361.296
L 143.5824 361.296
M 125.2224 366.48
L 140.3424 366.48
M 130.6224 371.664
L 134.9424 371.664
" clip-path="url(#pfabc1a432d)" style="fill: none; stroke: #000000; stroke-width: 2; stroke-linecap: round"/>
   </g>
   <g id="line2d_2">
    <path d="M 132.7824 344.016
L 132.7824 311.616
L 132.7824 311.616
M 132.7824 268.416
L 132.7824 268.416
L 132.7824 236.016
" clip-path="url(#pfabc1a432d)" style="fill: none; stroke: #000000; stroke-width: 2; stroke-linecap: round"/>
   </g>
   <g id="line2d_3">
    <path d="M 132.7824 290.016
L 132.7824 279.216
" clip-path="url(#pfabc1a432d)" style="fill: none; stroke: #000000; stroke-width: 2; stroke-linecap: round"/>
   </g>
   <g id="patch_3">
    <path d="M 136.0224 290.016
L 132.7824 300.816
L 129.5424 290.016
z
" clip-path="url(#pfabc1a432d)"/>
   </g>
   <g id="line2d_4">
    <path d="M 132.7824 236.016
L 111.1824 236.016
L 89.5824 236.016
" clip-path="url(#pfabc1a432d)" style="fill: none; stroke: #000000; stroke-width: 2; stroke-linecap: round"/>
   </g>
   <g id="line2d_5">
    <path d="M 89.5824 236.016
L 89.5824 218.016
L 71.5824 218.016
L 71.5824 182.016
L 89.5824 182.016
L 89.5824 164.016
" clip-path="url(#pfabc1a432d)" style="fill: none; stroke: #000000; stroke-width: 2; stroke-linecap: round"/>
   </g>
   <g id="line2d_6">
    <path d="M 78.7824 218.016
L 71.5824 218.016
" clip-path="url(#pfabc1a432d)" style="fill: none; stroke: #000000; stroke-width: 2; stroke-linecap: round"/>
   </g>
   <g id="patch_4">
    <path d="M 78.7824 212.616
L 89.5824 218.016
L 78.7824 223.416
z
" clip-path="url(#pfabc1a432d)"/>
   </g>
   <g id="line2d_7">
    <path d="M 67.9824 214.416
L 67.9824 185.616
" clip-path="url(#pfabc1a432d)" style="fill: none; stroke: #000000; stroke-width: 2; stroke-linecap: round"/>
   </g>
   <g id="line2d_8">
    <path d="M 49.9824 214.416
L 67.9824 214.416
" clip-path="url(#pfabc1a432d)" style="fill: none; stroke: #000000; stroke-width: 2; stroke-linecap: round"/>
   </g>
   <g id="line2d_9">
    <path d="M 89.5824 164.016
L 89.5824 131.616
L 78.7824 128.016
L 100.3824 120.816
L 78.7824 113.616
L 100.3824 106.416
L 78.7824 99.216
L 100.3824 92.016
L 89.5824 88.416
L 89.5824 56.016
" clip-path="url(#pfabc1a432d)" style="fill: none; stroke: #000000; stroke-width: 2; stroke-linecap: round"/>
   </g>
   <g id="line2d_10">
    <path d="M 89.5824 56.016
L 132.7824 56.016
L 175.9824 56.016
" clip-path="url(#pfabc1a432d)" style="fill: none; stroke: #000000; stroke-width: 2; stroke-linecap: round"/>
   </g>
   <g id="line2d_11">
    <path d="M 132.7824 56.016
L 132.7824 38.736
" clip-path="url(#pfabc1a432d)" style="fill: none; stroke: #000000; stroke-width: 2; stroke-linecap: round"/>
   </g>
   <g id="line2d_12">
    <path d="M 132.7824 38.736
L 124.6824 38.736
" clip-path="url(#pfabc1a432d)" style="fill: none; stroke: #000000; stroke-width: 2; stroke-linecap: round"/>
   </g>
   <g id="line2d_13">
    <path d="M 132.7824 38.736
L 140.8824 38.736
" clip-path="url(#pfabc1a432d)" style="fill: none; stroke: #000000; stroke-width: 2; stroke-linecap: round"/>
   </g>
   <g id="line2d_14">
    <path d="M 132.7824 56.016
L 154.3824 56.016
L 175.9824 56.016
" clip-path="url(#pfabc1a432d)" style="fill: none; stroke: #000000; stroke-width: 2; stroke-linecap: round"/>
   </g>
   <g id="line2d_15">
    <path d="M 132.7824 236.016
L 154.3824 236.016
L 175.9824 236.016
" clip-path="url(#pfabc1a432d)" style="fill: none; stroke: #000000; stroke-width: 2; stroke-linecap: round"/>
   </g>
   <g id="line2d_16">
    <path d="M 175.9824 236.016
L 175.9824 218.016
L 193.9824 218.016
L 193.9824 182.016
L 175.9824 182.016
L 175.9824 164.016
" clip-path="url(#pfabc1a432d)" style="fill: none; stroke: #000000; stroke-width: 2; stroke-linecap: round"/>
   </g>
   <g id="line2d_17">
    <path d="M 186.7824 218.016
L 193.9824 218.016
" clip-path="url(#pfabc1a432d)" style="fill: none; stroke: #000000; stroke-width: 2; stroke-linecap: round"/>
   </g>
   <g id="patch_5">
    <path d="M 186.7824 223.416
L 175.9824 218.016
L 186.7824 212.616
z
" clip-path="url(#pfabc1a432d)"/>
   </g>
   <g id="line2d_18">
    <path d="M 197.5824 214.416
L 197.5824 185.616
" clip-path="url(#pfabc1a432d)" style="fill: none; stroke: #000000; stroke-width: 2; stroke-linecap: round"/>
   </g>
   <g id="line2d_19">
    <path d="M 215.5824 214.416
L 197.5824 214.416
" clip-path="url(#pfabc1a432d)" style="fill: none; stroke: #000000; stroke-width: 2; stroke-linecap: round"/>
   </g>
   <g id="line2d_20">
    <path d="M 175.9824 164.016
L 175.9824 131.616
L 165.1824 128.016
L 186.7824 120.816
L 165.1824 113.616
L 186.7824 106.416
L 165.1824 99.216
L 186.7824 92.016
L 175.9824 88.416
L 175.9824 56.016
" clip-path="url(#pfabc1a432d)" style="fill: none; stroke: #000000; stroke-width: 2; stroke-linecap: round"/>
   </g>
   <g id="line2d_21">
    <path d="M 175.9824 56.016
L 175.9824 56.016
L 175.9824 56.016
" clip-path="url(#pfabc1a432d)" style="fill: none; stroke: #000000; stroke-width: 2; stroke-linecap: round"/>
   </g>
   <g id="line2d_22">
    <path d="M 49.9824 214.416
L 47.8224 214.416
L 45.6624 214.416
" clip-path="url(#pfabc1a432d)" style="fill: none; stroke: #000000; stroke-width: 2; stroke-linecap: round"/>
   </g>
   <g id="line2d_23">
    <path d="M 215.5824 214.416
L 217.7424 214.416
L 219.9024 214.416
" clip-path="url(#pfabc1a432d)" style="fill: none; stroke: #000000; stroke-width: 2; stroke-linecap: round"/>
   </g>
   <g id="line2d_24">
    <path d="M 89.5824 164.016
L 78.7824 164.016
L 67.9824 164.016
" clip-path="url(#pfabc1a432d)" style="fill: none; stroke: #000000; stroke-width: 2; stroke-linecap: round"/>
   </g>
   <g id="line2d_25">
    <path d="M 175.9824 164.016
L 186.7824 164.016
L 197.5824 164.016
" clip-path="url(#pfabc1a432d)" style="fill: none; stroke: #000000; stroke-width: 2; stroke-linecap: round"/>
   </g>
   <g id="text_1">
    <!-- Iss -->
    <g transform="translate(158.7024 287.520375) scale(0.12 -0.12)">
     <defs>
      <path id="DejaVuSans-49" d="M 628 4666
L 1259 4666
L 1259 0
L 628 0
L 628 4666
z
" transform="scale(0.015625)"/>
      <path id="DejaVuSans-73" d="M 2834 3397
L 2834 2853
Q 2591 2978 2328 3040
Q 2066 3103 1784 3103
Q 1356 3103 1142 2972
Q 928 2841 928 2578
Q 928 2378 1081 2264
Q 1234 2150 1697 2047
L 1894 2003
Q 2506 1872 2764 1633
Q 3022 1394 3022 966
Q 3022 478 2636 193
Q 2250 -91 1575 -91
Q 1294 -91 989 -36
Q 684 19 347 128
L 347 722
Q 666 556 975 473
Q 1284 391 1588 391
Q 1994 391 2212 530
Q 2431 669 2431 922
Q 2431 1156 2273 1281
Q 2116 1406 1581 1522
L 1381 1569
Q 847 1681 609 1914
Q 372 2147 372 2553
Q 372 3047 722 3315
Q 1072 3584 1716 3584
Q 2034 3584 2315 3537
Q 2597 3491 2834 3397
z
" transform="scale(0.015625)"/>
     </defs>
     <use xlink:href="#DejaVuSans-49"/>
     <use xlink:href="#DejaVuSans-73" transform="translate(29.492188 0)"/>
     <use xlink:href="#DejaVuSans-73" transform="translate(81.591797 0)"/>
    </g>
    <!-- 0A -->
    <g transform="translate(158.7024 299.134125) scale(0.12 -0.12)">
     <defs>
      <path id="DejaVuSans-30" d="M 2034 4250
Q 1547 4250 1301 3770
Q 1056 3291 1056 2328
Q 1056 1369 1301 889
Q 1547 409 2034 409
Q 2525 409 2770 889
Q 3016 1369 3016 2328
Q 3016 3291 2770 3770
Q 2525 4250 2034 4250
z
M 2034 4750
Q 2819 4750 3233 4129
Q 3647 3509 3647 2328
Q 3647 1150 3233 529
Q 2819 -91 2034 -91
Q 1250 -91 836 529
Q 422 1150 422 2328
Q 422 3509 836 4129
Q 1250 4750 2034 4750
z
" transform="scale(0.015625)"/>
      <path id="DejaVuSans-41" d="M 2188 4044
L 1331 1722
L 3047 1722
L 2188 4044
z
M 1831 4666
L 2547 4666
L 4325 0
L 3669 0
L 3244 1197
L 1141 1197
L 716 0
L 50 0
L 1831 4666
z
" transform="scale(0.015625)"/>
     </defs>
     <use xlink:href="#DejaVuSans-30"/>
     <use xlink:href="#DejaVuSans-41" transform="translate(63.623047 0)"/>
    </g>
   </g>
   <g id="text_2">
    <!-- RD1 -->
    <g transform="translate(49.249275 107.520375) scale(0.12 -0.12)">
     <defs>
      <path id="DejaVuSans-52" d="M 2841 2188
Q 3044 2119 3236 1894
Q 3428 1669 3622 1275
L 4263 0
L 3584 0
L 2988 1197
Q 2756 1666 2539 1819
Q 2322 1972 1947 1972
L 1259 1972
L 1259 0
L 628 0
L 628 4666
L 2053 4666
Q 2853 4666 3247 4331
Q 3641 3997 3641 3322
Q 3641 2881 3436 2590
Q 3231 2300 2841 2188
z
M 1259 4147
L 1259 2491
L 2053 2491
Q 2509 2491 2742 2702
Q 2975 2913 2975 3322
Q 2975 3731 2742 3939
Q 2509 4147 2053 4147
L 1259 4147
z
" transform="scale(0.015625)"/>
      <path id="DejaVuSans-44" d="M 1259 4147
L 1259 519
L 2022 519
Q 2988 519 3436 956
Q 3884 1394 3884 2338
Q 3884 3275 3436 3711
Q 2988 4147 2022 4147
L 1259 4147
z
M 628 4666
L 1925 4666
Q 3281 4666 3915 4102
Q 4550 3538 4550 2338
Q 4550 1131 3912 565
Q 3275 0 1925 0
L 628 0
L 628 4666
z
" transform="scale(0.015625)"/>
      <path id="DejaVuSans-31" d="M 794 531
L 1825 531
L 1825 4091
L 703 3866
L 703 4441
L 1819 4666
L 2450 4666
L 2450 531
L 3481 531
L 3481 0
L 794 0
L 794 531
z
" transform="scale(0.015625)"/>
     </defs>
     <use xlink:href="#DejaVuSans-52"/>
     <use xlink:href="#DejaVuSans-44" transform="translate(69.482422 0)"/>
     <use xlink:href="#DejaVuSans-31" transform="translate(146.484375 0)"/>
    </g>
    <!-- 2000Ω -->
    <g transform="translate(34.751775 119.134125) scale(0.12 -0.12)">
     <defs>
      <path id="DejaVuSans-32" d="M 1228 531
L 3431 531
L 3431 0
L 469 0
L 469 531
Q 828 903 1448 1529
Q 2069 2156 2228 2338
Q 2531 2678 2651 2914
Q 2772 3150 2772 3378
Q 2772 3750 2511 3984
Q 2250 4219 1831 4219
Q 1534 4219 1204 4116
Q 875 4013 500 3803
L 500 4441
Q 881 4594 1212 4672
Q 1544 4750 1819 4750
Q 2544 4750 2975 4387
Q 3406 4025 3406 3419
Q 3406 3131 3298 2873
Q 3191 2616 2906 2266
Q 2828 2175 2409 1742
Q 1991 1309 1228 531
z
" transform="scale(0.015625)"/>
      <path id="DejaVuSans-3a9" d="M 4647 556
L 4647 0
L 2772 0
L 2772 556
Q 3325 859 3634 1378
Q 3944 1897 3944 2528
Q 3944 3278 3531 3731
Q 3119 4184 2444 4184
Q 1769 4184 1355 3729
Q 941 3275 941 2528
Q 941 1897 1250 1378
Q 1563 859 2119 556
L 2119 0
L 244 0
L 244 556
L 1241 556
Q 747 991 519 1456
Q 294 1922 294 2497
Q 294 3491 894 4106
Q 1491 4722 2444 4722
Q 3391 4722 3994 4106
Q 4594 3494 4594 2528
Q 4594 1922 4372 1459
Q 4150 997 3647 556
L 4647 556
z
" transform="scale(0.015625)"/>
     </defs>
     <use xlink:href="#DejaVuSans-32"/>
     <use xlink:href="#DejaVuSans-30" transform="translate(63.623047 0)"/>
     <use xlink:href="#DejaVuSans-30" transform="translate(127.246094 0)"/>
     <use xlink:href="#DejaVuSans-30" transform="translate(190.869141 0)"/>
     <use xlink:href="#DejaVuSans-3a9" transform="translate(254.492188 0)"/>
    </g>
   </g>
   <g id="text_3">
    <!-- VDD -->
    <g transform="translate(119.438025 20.306625) scale(0.12 -0.12)">
     <defs>
      <path id="DejaVuSans-56" d="M 1831 0
L 50 4666
L 709 4666
L 2188 738
L 3669 4666
L 4325 4666
L 2547 0
L 1831 0
z
" transform="scale(0.015625)"/>
     </defs>
     <use xlink:href="#DejaVuSans-56"/>
     <use xlink:href="#DejaVuSans-44" transform="translate(68.408203 0)"/>
     <use xlink:href="#DejaVuSans-44" transform="translate(145.410156 0)"/>
    </g>
    <!-- 5V -->
    <g transform="translate(124.860525 31.920375) scale(0.12 -0.12)">
     <defs>
      <path id="DejaVuSans-35" d="M 691 4666
L 3169 4666
L 3169 4134
L 1269 4134
L 1269 2991
Q 1406 3038 1543 3061
Q 1681 3084 1819 3084
Q 2600 3084 3056 2656
Q 3513 2228 3513 1497
Q 3513 744 3044 326
Q 2575 -91 1722 -91
Q 1428 -91 1123 -41
Q 819 9 494 109
L 494 744
Q 775 591 1075 516
Q 1375 441 1709 441
Q 2250 441 2565 725
Q 2881 1009 2881 1497
Q 2881 1984 2565 2268
Q 2250 2553 1709 2553
Q 1456 2553 1204 2497
Q 953 2441 691 2322
L 691 4666
z
" transform="scale(0.015625)"/>
     </defs>
     <use xlink:href="#DejaVuSans-35"/>
     <use xlink:href="#DejaVuSans-56" transform="translate(63.623047 0)"/>
    </g>
   </g>
   <g id="text_4">
    <!-- RD2 -->
    <g transform="translate(191.1024 107.520375) scale(0.12 -0.12)">
     <use xlink:href="#DejaVuSans-52"/>
     <use xlink:href="#DejaVuSans-44" transform="translate(69.482422 0)"/>
     <use xlink:href="#DejaVuSans-32" transform="translate(146.484375 0)"/>
    </g>
    <!-- 2000Ω -->
    <g transform="translate(191.1024 119.134125) scale(0.12 -0.12)">
     <use xlink:href="#DejaVuSans-32"/>
     <use xlink:href="#DejaVuSans-30" transform="translate(63.623047 0)"/>
     <use xlink:href="#DejaVuSans-30" transform="translate(127.246094 0)"/>
     <use xlink:href="#DejaVuSans-30" transform="translate(190.869141 0)"/>
     <use xlink:href="#DejaVuSans-3a9" transform="translate(254.492188 0)"/>
    </g>
   </g>
   <g id="patch_6">
    <path d="M 132.7824 239.256
C 133.641658 239.256 134.465839 238.914613 135.073426 238.307026
C 135.681013 237.699439 136.0224 236.875258 136.0224 236.016
C 136.0224 235.156742 135.681013 234.332561 135.073426 233.724974
C 134.465839 233.117387 133.641658 232.776 132.7824 232.776
C 131.923142 232.776 131.098961 233.117387 130.491374 233.724974
C 129.883787 234.332561 129.5424 235.156742 129.5424 236.016
C 129.5424 236.875258 129.883787 237.699439 130.491374 238.307026
C 131.098961 238.914613 131.923142 239.256 132.7824 239.256
z
" clip-path="url(#pfabc1a432d)" style="stroke: #000000; stroke-width: 2; stroke-linejoin: miter"/>
   </g>
   <g id="patch_7">
    <path d="M 45.6624 217.656
C 46.521658 217.656 47.345839 217.314613 47.953426 216.707026
C 48.561013 216.099439 48.9024 215.275258 48.9024 214.416
C 48.9024 213.556742 48.561013 212.732561 47.953426 212.124974
C 47.345839 211.517387 46.521658 211.176 45.6624 211.176
C 44.803142 211.176 43.978961 211.517387 43.371374 212.124974
C 42.763787 212.732561 42.4224 213.556742 42.4224 214.416
C 42.4224 215.275258 42.763787 216.099439 43.371374 216.707026
C 43.978961 217.314613 44.803142 217.656 45.6624 217.656
z
" clip-path="url(#pfabc1a432d)" style="fill: #ffffff; stroke: #000000; stroke-width: 2; stroke-linejoin: miter"/>
   </g>
   <g id="text_5">
    <!-- $V_{in1}$ -->
    <g transform="translate(16.5024 217.72725) scale(0.12 -0.12)">
     <defs>
      <path id="DejaVuSans-Oblique-56" d="M 1319 0
L 500 4666
L 1119 4666
L 1797 653
L 4063 4666
L 4750 4666
L 2053 0
L 1319 0
z
" transform="scale(0.015625)"/>
      <path id="DejaVuSans-Oblique-69" d="M 1172 4863
L 1747 4863
L 1606 4134
L 1031 4134
L 1172 4863
z
M 909 3500
L 1484 3500
L 800 0
L 225 0
L 909 3500
z
" transform="scale(0.015625)"/>
      <path id="DejaVuSans-Oblique-6e" d="M 3566 2113
L 3156 0
L 2578 0
L 2988 2091
Q 3016 2238 3031 2350
Q 3047 2463 3047 2528
Q 3047 2791 2881 2937
Q 2716 3084 2419 3084
Q 1956 3084 1622 2776
Q 1288 2469 1184 1941
L 800 0
L 225 0
L 903 3500
L 1478 3500
L 1363 2950
Q 1603 3253 1940 3418
Q 2278 3584 2650 3584
Q 3113 3584 3367 3334
Q 3622 3084 3622 2631
Q 3622 2519 3608 2391
Q 3594 2263 3566 2113
z
" transform="scale(0.015625)"/>
     </defs>
     <use xlink:href="#DejaVuSans-Oblique-56" transform="translate(0 0.09375)"/>
     <use xlink:href="#DejaVuSans-Oblique-69" transform="translate(68.408203 -16.3125) scale(0.7)"/>
     <use xlink:href="#DejaVuSans-Oblique-6e" transform="translate(87.856445 -16.3125) scale(0.7)"/>
     <use xlink:href="#DejaVuSans-31" transform="translate(132.22168 -16.3125) scale(0.7)"/>
    </g>
   </g>
   <g id="patch_8">
    <path d="M 219.9024 217.656
C 220.761658 217.656 221.585839 217.314613 222.193426 216.707026
C 222.801013 216.099439 223.1424 215.275258 223.1424 214.416
C 223.1424 213.556742 222.801013 212.732561 222.193426 212.124974
C 221.585839 211.517387 220.761658 211.176 219.9024 211.176
C 219.043142 211.176 218.218961 211.517387 217.611374 212.124974
C 217.003787 212.732561 216.6624 213.556742 216.6624 214.416
C 216.6624 215.275258 217.003787 216.099439 217.611374 216.707026
C 218.218961 217.314613 219.043142 217.656 219.9024 217.656
z
" clip-path="url(#pfabc1a432d)" style="fill: #ffffff; stroke: #000000; stroke-width: 2; stroke-linejoin: miter"/>
   </g>
   <g id="text_6">
    <!-- $V_{in2}$ -->
    <g transform="translate(227.4624 217.72725) scale(0.12 -0.12)">
     <use xlink:href="#DejaVuSans-Oblique-56" transform="translate(0 0.09375)"/>
     <use xlink:href="#DejaVuSans-Oblique-69" transform="translate(68.408203 -16.3125) scale(0.7)"/>
     <use xlink:href="#DejaVuSans-Oblique-6e" transform="translate(87.856445 -16.3125) scale(0.7)"/>
     <use xlink:href="#DejaVuSans-32" transform="translate(132.22168 -16.3125) scale(0.7)"/>
    </g>
   </g>
   <g id="patch_9">
    <path d="M 67.9824 167.256
C 68.841658 167.256 69.665839 166.914613 70.273426 166.307026
C 70.881013 165.699439 71.2224 164.875258 71.2224 164.016
C 71.2224 163.156742 70.881013 162.332561 70.273426 161.724974
C 69.665839 161.117387 68.841658 160.776 67.9824 160.776
C 67.123142 160.776 66.298961 161.117387 65.691374 161.724974
C 65.083787 162.332561 64.7424 163.156742 64.7424 164.016
C 64.7424 164.875258 65.083787 165.699439 65.691374 166.307026
C 66.298961 166.914613 67.123142 167.256 67.9824 167.256
z
" clip-path="url(#pfabc1a432d)" style="fill: #ffffff; stroke: #000000; stroke-width: 2; stroke-linejoin: miter"/>
   </g>
   <g id="text_7">
    <!-- $V_{out1}$ -->
    <g transform="translate(49.6224 145.72725) scale(0.12 -0.12)">
     <defs>
      <path id="DejaVuSans-Oblique-6f" d="M 1625 -91
Q 1009 -91 651 289
Q 294 669 294 1325
Q 294 1706 417 2101
Q 541 2497 738 2766
Q 1047 3184 1428 3384
Q 1809 3584 2291 3584
Q 2888 3584 3255 3212
Q 3622 2841 3622 2241
Q 3622 1825 3500 1412
Q 3378 1000 3181 728
Q 2875 309 2494 109
Q 2113 -91 1625 -91
z
M 891 1344
Q 891 869 1089 633
Q 1288 397 1691 397
Q 2269 397 2648 901
Q 3028 1406 3028 2181
Q 3028 2634 2825 2865
Q 2622 3097 2228 3097
Q 1903 3097 1650 2945
Q 1397 2794 1197 2484
Q 1050 2253 970 1956
Q 891 1659 891 1344
z
" transform="scale(0.015625)"/>
      <path id="DejaVuSans-Oblique-75" d="M 428 1388
L 838 3500
L 1416 3500
L 1006 1409
Q 975 1256 961 1147
Q 947 1038 947 966
Q 947 700 1109 554
Q 1272 409 1569 409
Q 2031 409 2368 721
Q 2706 1034 2809 1563
L 3194 3500
L 3769 3500
L 3091 0
L 2516 0
L 2631 550
Q 2388 244 2052 76
Q 1716 -91 1338 -91
Q 878 -91 622 161
Q 366 413 366 863
Q 366 956 381 1097
Q 397 1238 428 1388
z
" transform="scale(0.015625)"/>
      <path id="DejaVuSans-Oblique-74" d="M 2706 3500
L 2619 3053
L 1472 3053
L 1100 1153
Q 1081 1047 1072 975
Q 1063 903 1063 863
Q 1063 663 1183 572
Q 1303 481 1569 481
L 2150 481
L 2053 0
L 1503 0
Q 991 0 739 200
Q 488 400 488 806
Q 488 878 497 964
Q 506 1050 525 1153
L 897 3053
L 409 3053
L 500 3500
L 978 3500
L 1172 4494
L 1747 4494
L 1556 3500
L 2706 3500
z
" transform="scale(0.015625)"/>
     </defs>
     <use xlink:href="#DejaVuSans-Oblique-56" transform="translate(0 0.09375)"/>
     <use xlink:href="#DejaVuSans-Oblique-6f" transform="translate(68.408203 -16.3125) scale(0.7)"/>
     <use xlink:href="#DejaVuSans-Oblique-75" transform="translate(111.235352 -16.3125) scale(0.7)"/>
     <use xlink:href="#DejaVuSans-Oblique-74" transform="translate(155.600586 -16.3125) scale(0.7)"/>
     <use xlink:href="#DejaVuSans-31" transform="translate(183.046875 -16.3125) scale(0.7)"/>
    </g>
   </g>
   <g id="patch_10">
    <path d="M 197.5824 167.256
C 198.441658 167.256 199.265839 166.914613 199.873426 166.307026
C 200.481013 165.699439 200.8224 164.875258 200.8224 164.016
C 200.8224 163.156742 200.481013 162.332561 199.873426 161.724974
C 199.265839 161.117387 198.441658 160.776 197.5824 160.776
C 196.723142 160.776 195.898961 161.117387 195.291374 161.724974
C 194.683787 162.332561 194.3424 163.156742 194.3424 164.016
C 194.3424 164.875258 194.683787 165.699439 195.291374 166.307026
C 195.898961 166.914613 196.723142 167.256 197.5824 167.256
z
" clip-path="url(#pfabc1a432d)" style="fill: #ffffff; stroke: #000000; stroke-width: 2; stroke-linejoin: miter"/>
   </g>
   <g id="text_8">
    <!-- $V_{out2}$ -->
    <g transform="translate(188.2224 145.72725) scale(0.12 -0.12)">
     <use xlink:href="#DejaVuSans-Oblique-56" transform="translate(0 0.09375)"/>
     <use xlink:href="#DejaVuSans-Oblique-6f" transform="translate(68.408203 -16.3125) scale(0.7)"/>
     <use xlink:href="#DejaVuSans-Oblique-75" transform="translate(111.235352 -16.3125) scale(0.7)"/>
     <use xlink:href="#DejaVuSans-Oblique-74" transform="translate(155.600586 -16.3125) scale(0.7)"/>
     <use xlink:href="#DejaVuSans-32" transform="translate(183.046875 -16.3125) scale(0.7)"/>
    </g>
   </g>
  </g>
 </g>
 <defs>
  <clipPath id="pfabc1a432d">
   <rect x="0" y="0" width="265.5648" height="377.28"/>
  </clipPath>
 </defs>
</svg>
