<?xml version="1.0" encoding="utf-8" standalone="no"?>
<!DOCTYPE svg PUBLIC "-//W3C//DTD SVG 1.1//EN"
  "http://www.w3.org/Graphics/SVG/1.1/DTD/svg11.dtd">
<svg xmlns:xlink="http://www.w3.org/1999/xlink" width="477.36pt" height="118.16pt" viewBox="0 0 477.36 118.16" xmlns="http://www.w3.org/2000/svg" version="1.1">
 <metadata>
  <rdf:RDF xmlns:dc="http://purl.org/dc/elements/1.1/" xmlns:cc="http://creativecommons.org/ns#" xmlns:rdf="http://www.w3.org/1999/02/22-rdf-syntax-ns#">
   <cc:Work>
    <dc:type rdf:resource="http://purl.org/dc/dcmitype/StillImage"/>
    <dc:date>2026-04-20T23:12:17.381723</dc:date>
    <dc:format>image/svg+xml</dc:format>
    <dc:creator>
     <cc:Agent>
      <dc:title>Matplotlib v3.10.8, https://matplotlib.org/</dc:title>
     </cc:Agent>
    </dc:creator>
   </cc:Work>
  </rdf:RDF>
 </metadata>
 <defs>
  <style type="text/css">*{stroke-linejoin: round; stroke-linecap: butt}</style>
 </defs>
 <g id="figure_1">
  <g id="patch_1">
   <path d="M 0 118.16 
L 477.36 118.16 
L 477.36 0 
L 0 0 
z
" style="fill: #ffffff"/>
  </g>
  <g id="axes_1">
   <g id="patch_2">
    <path d="M 76.68 59.08 
L 4.68 87.88 
L 4.68 30.28 
L 76.68 59.08 
z
" clip-path="url(#p0e1a6ffa25)" style="fill: none; stroke: #b22222; stroke-width: 2; stroke-linecap: round"/>
   </g>
   <g id="patch_3">
    <path d="M 59.765533 52.923637 
C 59.047394 54.896707 58.68 56.980303 58.68 59.08 
C 58.68 61.179697 59.047394 63.263293 59.765533 65.236363 
" clip-path="url(#p0e1a6ffa25)" style="fill: none; stroke: #b22222; stroke-width: 2; stroke-linejoin: miter"/>
   </g>
   <g id="patch_4">
    <path d="M 48.771129 48.922002 
C 47.5862 52.177567 46.98 55.615499 46.98 59.08 
C 46.98 62.544501 47.5862 65.982433 48.771129 69.237998 
" clip-path="url(#p0e1a6ffa25)" style="fill: none; stroke: #b22222; stroke-width: 2; stroke-linejoin: miter"/>
   </g>
   <g id="patch_5">
    <path d="M 37.776725 44.920366 
C 36.125006 49.458427 35.28 54.250696 35.28 59.08 
C 35.28 63.909304 36.125006 68.701573 37.776725 73.239634 
" clip-path="url(#p0e1a6ffa25)" style="fill: none; stroke: #b22222; stroke-width: 2; stroke-linejoin: miter"/>
   </g>
   <g id="patch_6">
    <path d="M 26.782322 40.91873 
C 24.663812 46.739287 23.58 52.885893 23.58 59.08 
C 23.58 65.274107 24.663812 71.420713 26.782322 77.24127 
" clip-path="url(#p0e1a6ffa25)" style="fill: none; stroke: #b22222; stroke-width: 2; stroke-linejoin: miter"/>
   </g>
   <g id="patch_7">
    <path d="M 15.787918 36.917095 
C 13.202619 44.020147 11.88 51.52109 11.88 59.08 
C 11.88 66.63891 13.202619 74.139853 15.787918 81.242905 
" clip-path="url(#p0e1a6ffa25)" style="fill: none; stroke: #b22222; stroke-width: 2; stroke-linejoin: miter"/>
   </g>
   <g id="patch_8">
    <path d="M 400.68 59.08 
L 472.68 30.28 
L 472.68 87.88 
L 400.68 59.08 
z
" clip-path="url(#p0e1a6ffa25)" style="fill: none; stroke: #b22222; stroke-width: 2; stroke-linecap: round"/>
   </g>
   <g id="patch_9">
    <path d="M 417.594467 65.236363 
C 418.312606 63.263293 418.68 61.179697 418.68 59.08 
C 418.68 56.980303 418.312606 54.896707 417.594467 52.923637 
" clip-path="url(#p0e1a6ffa25)" style="fill: none; stroke: #b22222; stroke-width: 2; stroke-linejoin: miter"/>
   </g>
   <g id="patch_10">
    <path d="M 428.588871 69.237998 
C 429.7738 65.982433 430.38 62.544501 430.38 59.08 
C 430.38 55.615499 429.7738 52.177567 428.588871 48.922002 
" clip-path="url(#p0e1a6ffa25)" style="fill: none; stroke: #b22222; stroke-width: 2; stroke-linejoin: miter"/>
   </g>
   <g id="patch_11">
    <path d="M 439.583275 73.239634 
C 441.234994 68.701573 442.08 63.909304 442.08 59.08 
C 442.08 54.250696 441.234994 49.458427 439.583275 44.920366 
" clip-path="url(#p0e1a6ffa25)" style="fill: none; stroke: #b22222; stroke-width: 2; stroke-linejoin: miter"/>
   </g>
   <g id="patch_12">
    <path d="M 450.577678 77.24127 
C 452.696188 71.420713 453.78 65.274107 453.78 59.08 
C 453.78 52.885893 452.696188 46.739287 450.577678 40.91873 
" clip-path="url(#p0e1a6ffa25)" style="fill: none; stroke: #b22222; stroke-width: 2; stroke-linejoin: miter"/>
   </g>
   <g id="patch_13">
    <path d="M 461.572082 81.242905 
C 464.157381 74.139853 465.48 66.63891 465.48 59.08 
C 465.48 51.52109 464.157381 44.020147 461.572082 36.917095 
" clip-path="url(#p0e1a6ffa25)" style="fill: none; stroke: #b22222; stroke-width: 2; stroke-linejoin: miter"/>
   </g>
   <g id="line2d_1">
    <path d="M 76.68 59.08 
L 103.68 59.08 
L 130.68 59.08 
" clip-path="url(#p0e1a6ffa25)" style="fill: none; stroke: #b22222; stroke-width: 3; stroke-linecap: round"/>
   </g>
   <g id="line2d_2">
    <path d="M 130.68 59.08 
L 157.68 59.08 
" clip-path="url(#p0e1a6ffa25)" style="fill: none; stroke: #b22222; stroke-width: 2.5; stroke-linecap: round"/>
   </g>
   <g id="line2d_3">
    <path d="M 157.68 59.08 
L 184.68 30.28 
" clip-path="url(#p0e1a6ffa25)" style="fill: none; stroke: #b22222; stroke-width: 2.5; stroke-linecap: round"/>
   </g>
   <g id="line2d_4">
    <path d="M 157.68 59.08 
L 184.68 87.88 
" clip-path="url(#p0e1a6ffa25)" style="fill: none; stroke: #b22222; stroke-width: 2.5; stroke-linecap: round"/>
   </g>
   <g id="line2d_5">
    <path d="M 184.68 30.28 
L 238.68 30.28 
L 292.68 30.28 
" clip-path="url(#p0e1a6ffa25)" style="fill: none; stroke: #b22222; stroke-width: 3; stroke-linecap: round"/>
   </g>
   <g id="line2d_6">
    <path d="M 184.68 87.88 
L 238.68 87.88 
L 292.68 87.88 
" clip-path="url(#p0e1a6ffa25)" style="fill: none; stroke: #b22222; stroke-width: 3; stroke-linecap: round"/>
   </g>
   <g id="line2d_7">
    <path d="M 319.68 59.08 
L 346.68 59.08 
" clip-path="url(#p0e1a6ffa25)" style="fill: none; stroke: #b22222; stroke-width: 2.5; stroke-linecap: round"/>
   </g>
   <g id="line2d_8">
    <path d="M 292.68 30.28 
L 319.68 59.08 
" clip-path="url(#p0e1a6ffa25)" style="fill: none; stroke: #b22222; stroke-width: 2.5; stroke-linecap: round"/>
   </g>
   <g id="line2d_9">
    <path d="M 292.68 87.88 
L 319.68 59.08 
" clip-path="url(#p0e1a6ffa25)" style="fill: none; stroke: #b22222; stroke-width: 2.5; stroke-linecap: round"/>
   </g>
   <g id="line2d_10">
    <path d="M 346.68 59.08 
L 373.68 59.08 
L 400.68 59.08 
" clip-path="url(#p0e1a6ffa25)" style="fill: none; stroke: #b22222; stroke-width: 3; stroke-linecap: round"/>
   </g>
   <g id="text_1">
    <!-- GC_In -->
    <g transform="translate(24.719687 24.086406) scale(0.11 -0.11)">
     <defs>
      <path id="DejaVuSans-47" d="M 3809 666 
L 3809 1919 
L 2778 1919 
L 2778 2438 
L 4434 2438 
L 4434 434 
Q 4069 175 3628 42 
Q 3188 -91 2688 -91 
Q 1594 -91 976 548 
Q 359 1188 359 2328 
Q 359 3472 976 4111 
Q 1594 4750 2688 4750 
Q 3144 4750 3555 4637 
Q 3966 4525 4313 4306 
L 4313 3634 
Q 3963 3931 3569 4081 
Q 3175 4231 2741 4231 
Q 1884 4231 1454 3753 
Q 1025 3275 1025 2328 
Q 1025 1384 1454 906 
Q 1884 428 2741 428 
Q 3075 428 3337 486 
Q 3600 544 3809 666 
z
" transform="scale(0.015625)"/>
      <path id="DejaVuSans-43" d="M 4122 4306 
L 4122 3641 
Q 3803 3938 3442 4084 
Q 3081 4231 2675 4231 
Q 1875 4231 1450 3742 
Q 1025 3253 1025 2328 
Q 1025 1406 1450 917 
Q 1875 428 2675 428 
Q 3081 428 3442 575 
Q 3803 722 4122 1019 
L 4122 359 
Q 3791 134 3420 21 
Q 3050 -91 2638 -91 
Q 1578 -91 968 557 
Q 359 1206 359 2328 
Q 359 3453 968 4101 
Q 1578 4750 2638 4750 
Q 3056 4750 3426 4639 
Q 3797 4528 4122 4306 
z
" transform="scale(0.015625)"/>
      <path id="DejaVuSans-5f" d="M 3263 -1063 
L 3263 -1509 
L -63 -1509 
L -63 -1063 
L 3263 -1063 
z
" transform="scale(0.015625)"/>
      <path id="DejaVuSans-49" d="M 628 4666 
L 1259 4666 
L 1259 0 
L 628 0 
L 628 4666 
z
" transform="scale(0.015625)"/>
      <path id="DejaVuSans-6e" d="M 3513 2113 
L 3513 0 
L 2938 0 
L 2938 2094 
Q 2938 2591 2744 2837 
Q 2550 3084 2163 3084 
Q 1697 3084 1428 2787 
Q 1159 2491 1159 1978 
L 1159 0 
L 581 0 
L 581 3500 
L 1159 3500 
L 1159 2956 
Q 1366 3272 1645 3428 
Q 1925 3584 2291 3584 
Q 2894 3584 3203 3211 
Q 3513 2838 3513 2113 
z
" transform="scale(0.015625)"/>
     </defs>
     <use xlink:href="#DejaVuSans-47"/>
     <use xlink:href="#DejaVuSans-43" transform="translate(77.490234 0)"/>
     <use xlink:href="#DejaVuSans-5f" transform="translate(147.314453 0)"/>
     <use xlink:href="#DejaVuSans-49" transform="translate(197.314453 0)"/>
     <use xlink:href="#DejaVuSans-6e" transform="translate(226.806641 0)"/>
    </g>
   </g>
   <g id="text_2">
    <!-- WG_In -->
    <g style="fill: #b22222" transform="translate(86.122109 52.886406) scale(0.11 -0.11)">
     <defs>
      <path id="DejaVuSans-57" d="M 213 4666 
L 850 4666 
L 1831 722 
L 2809 4666 
L 3519 4666 
L 4500 722 
L 5478 4666 
L 6119 4666 
L 4947 0 
L 4153 0 
L 3169 4050 
L 2175 0 
L 1381 0 
L 213 4666 
z
" transform="scale(0.015625)"/>
     </defs>
     <use xlink:href="#DejaVuSans-57"/>
     <use xlink:href="#DejaVuSans-47" transform="translate(98.876953 0)"/>
     <use xlink:href="#DejaVuSans-5f" transform="translate(176.367188 0)"/>
     <use xlink:href="#DejaVuSans-49" transform="translate(226.367188 0)"/>
     <use xlink:href="#DejaVuSans-6e" transform="translate(255.859375 0)"/>
    </g>
   </g>
   <g id="text_3">
    <!-- Splitter -->
    <g style="fill: #b22222" transform="translate(137.683203 24.392344) scale(0.11 -0.11)">
     <defs>
      <path id="DejaVuSans-53" d="M 3425 4513 
L 3425 3897 
Q 3066 4069 2747 4153 
Q 2428 4238 2131 4238 
Q 1616 4238 1336 4038 
Q 1056 3838 1056 3469 
Q 1056 3159 1242 3001 
Q 1428 2844 1947 2747 
L 2328 2669 
Q 3034 2534 3370 2195 
Q 3706 1856 3706 1288 
Q 3706 609 3251 259 
Q 2797 -91 1919 -91 
Q 1588 -91 1214 -16 
Q 841 59 441 206 
L 441 856 
Q 825 641 1194 531 
Q 1563 422 1919 422 
Q 2459 422 2753 634 
Q 3047 847 3047 1241 
Q 3047 1584 2836 1778 
Q 2625 1972 2144 2069 
L 1759 2144 
Q 1053 2284 737 2584 
Q 422 2884 422 3419 
Q 422 4038 858 4394 
Q 1294 4750 2059 4750 
Q 2388 4750 2728 4690 
Q 3069 4631 3425 4513 
z
" transform="scale(0.015625)"/>
      <path id="DejaVuSans-70" d="M 1159 525 
L 1159 -1331 
L 581 -1331 
L 581 3500 
L 1159 3500 
L 1159 2969 
Q 1341 3281 1617 3432 
Q 1894 3584 2278 3584 
Q 2916 3584 3314 3078 
Q 3713 2572 3713 1747 
Q 3713 922 3314 415 
Q 2916 -91 2278 -91 
Q 1894 -91 1617 61 
Q 1341 213 1159 525 
z
M 3116 1747 
Q 3116 2381 2855 2742 
Q 2594 3103 2138 3103 
Q 1681 3103 1420 2742 
Q 1159 2381 1159 1747 
Q 1159 1113 1420 752 
Q 1681 391 2138 391 
Q 2594 391 2855 752 
Q 3116 1113 3116 1747 
z
" transform="scale(0.015625)"/>
      <path id="DejaVuSans-6c" d="M 603 4863 
L 1178 4863 
L 1178 0 
L 603 0 
L 603 4863 
z
" transform="scale(0.015625)"/>
      <path id="DejaVuSans-69" d="M 603 3500 
L 1178 3500 
L 1178 0 
L 603 0 
L 603 3500 
z
M 603 4863 
L 1178 4863 
L 1178 4134 
L 603 4134 
L 603 4863 
z
" transform="scale(0.015625)"/>
      <path id="DejaVuSans-74" d="M 1172 4494 
L 1172 3500 
L 2356 3500 
L 2356 3053 
L 1172 3053 
L 1172 1153 
Q 1172 725 1289 603 
Q 1406 481 1766 481 
L 2356 481 
L 2356 0 
L 1766 0 
Q 1100 0 847 248 
Q 594 497 594 1153 
L 594 3053 
L 172 3053 
L 172 3500 
L 594 3500 
L 594 4494 
L 1172 4494 
z
" transform="scale(0.015625)"/>
      <path id="DejaVuSans-65" d="M 3597 1894 
L 3597 1613 
L 953 1613 
Q 991 1019 1311 708 
Q 1631 397 2203 397 
Q 2534 397 2845 478 
Q 3156 559 3463 722 
L 3463 178 
Q 3153 47 2828 -22 
Q 2503 -91 2169 -91 
Q 1331 -91 842 396 
Q 353 884 353 1716 
Q 353 2575 817 3079 
Q 1281 3584 2069 3584 
Q 2775 3584 3186 3129 
Q 3597 2675 3597 1894 
z
M 3022 2063 
Q 3016 2534 2758 2815 
Q 2500 3097 2075 3097 
Q 1594 3097 1305 2825 
Q 1016 2553 972 2059 
L 3022 2063 
z
" transform="scale(0.015625)"/>
      <path id="DejaVuSans-72" d="M 2631 2963 
Q 2534 3019 2420 3045 
Q 2306 3072 2169 3072 
Q 1681 3072 1420 2755 
Q 1159 2438 1159 1844 
L 1159 0 
L 581 0 
L 581 3500 
L 1159 3500 
L 1159 2956 
Q 1341 3275 1631 3429 
Q 1922 3584 2338 3584 
Q 2397 3584 2469 3576 
Q 2541 3569 2628 3553 
L 2631 2963 
z
" transform="scale(0.015625)"/>
     </defs>
     <use xlink:href="#DejaVuSans-53"/>
     <use xlink:href="#DejaVuSans-70" transform="translate(63.476562 0)"/>
     <use xlink:href="#DejaVuSans-6c" transform="translate(126.953125 0)"/>
     <use xlink:href="#DejaVuSans-69" transform="translate(154.736328 0)"/>
     <use xlink:href="#DejaVuSans-74" transform="translate(182.519531 0)"/>
     <use xlink:href="#DejaVuSans-74" transform="translate(221.728516 0)"/>
     <use xlink:href="#DejaVuSans-65" transform="translate(260.9375 0)"/>
     <use xlink:href="#DejaVuSans-72" transform="translate(322.460938 0)"/>
    </g>
   </g>
   <g id="text_4">
    <!-- WG-Long -->
    <g style="fill: #b22222" transform="translate(213.685078 13.746406) scale(0.11 -0.11)">
     <defs>
      <path id="DejaVuSans-2d" d="M 313 2009 
L 1997 2009 
L 1997 1497 
L 313 1497 
L 313 2009 
z
" transform="scale(0.015625)"/>
      <path id="DejaVuSans-4c" d="M 628 4666 
L 1259 4666 
L 1259 531 
L 3531 531 
L 3531 0 
L 628 0 
L 628 4666 
z
" transform="scale(0.015625)"/>
      <path id="DejaVuSans-6f" d="M 1959 3097 
Q 1497 3097 1228 2736 
Q 959 2375 959 1747 
Q 959 1119 1226 758 
Q 1494 397 1959 397 
Q 2419 397 2687 759 
Q 2956 1122 2956 1747 
Q 2956 2369 2687 2733 
Q 2419 3097 1959 3097 
z
M 1959 3584 
Q 2709 3584 3137 3096 
Q 3566 2609 3566 1747 
Q 3566 888 3137 398 
Q 2709 -91 1959 -91 
Q 1206 -91 779 398 
Q 353 888 353 1747 
Q 353 2609 779 3096 
Q 1206 3584 1959 3584 
z
" transform="scale(0.015625)"/>
      <path id="DejaVuSans-67" d="M 2906 1791 
Q 2906 2416 2648 2759 
Q 2391 3103 1925 3103 
Q 1463 3103 1205 2759 
Q 947 2416 947 1791 
Q 947 1169 1205 825 
Q 1463 481 1925 481 
Q 2391 481 2648 825 
Q 2906 1169 2906 1791 
z
M 3481 434 
Q 3481 -459 3084 -895 
Q 2688 -1331 1869 -1331 
Q 1566 -1331 1297 -1286 
Q 1028 -1241 775 -1147 
L 775 -588 
Q 1028 -725 1275 -790 
Q 1522 -856 1778 -856 
Q 2344 -856 2625 -561 
Q 2906 -266 2906 331 
L 2906 616 
Q 2728 306 2450 153 
Q 2172 0 1784 0 
Q 1141 0 747 490 
Q 353 981 353 1791 
Q 353 2603 747 3093 
Q 1141 3584 1784 3584 
Q 2172 3584 2450 3431 
Q 2728 3278 2906 2969 
L 2906 3500 
L 3481 3500 
L 3481 434 
z
" transform="scale(0.015625)"/>
     </defs>
     <use xlink:href="#DejaVuSans-57"/>
     <use xlink:href="#DejaVuSans-47" transform="translate(98.876953 0)"/>
     <use xlink:href="#DejaVuSans-2d" transform="translate(176.367188 0)"/>
     <use xlink:href="#DejaVuSans-4c" transform="translate(212.451172 0)"/>
     <use xlink:href="#DejaVuSans-6f" transform="translate(266.414062 0)"/>
     <use xlink:href="#DejaVuSans-6e" transform="translate(327.595703 0)"/>
     <use xlink:href="#DejaVuSans-67" transform="translate(390.974609 0)"/>
    </g>
    <!-- L=150.0µm -->
    <g style="fill: #b22222" transform="translate(206.404453 24.392344) scale(0.11 -0.11)">
     <defs>
      <path id="DejaVuSans-3d" d="M 678 2906 
L 4684 2906 
L 4684 2381 
L 678 2381 
L 678 2906 
z
M 678 1631 
L 4684 1631 
L 4684 1100 
L 678 1100 
L 678 1631 
z
" transform="scale(0.015625)"/>
      <path id="DejaVuSans-31" d="M 794 531 
L 1825 531 
L 1825 4091 
L 703 3866 
L 703 4441 
L 1819 4666 
L 2450 4666 
L 2450 531 
L 3481 531 
L 3481 0 
L 794 0 
L 794 531 
z
" transform="scale(0.015625)"/>
      <path id="DejaVuSans-35" d="M 691 4666 
L 3169 4666 
L 3169 4134 
L 1269 4134 
L 1269 2991 
Q 1406 3038 1543 3061 
Q 1681 3084 1819 3084 
Q 2600 3084 3056 2656 
Q 3513 2228 3513 1497 
Q 3513 744 3044 326 
Q 2575 -91 1722 -91 
Q 1428 -91 1123 -41 
Q 819 9 494 109 
L 494 744 
Q 775 591 1075 516 
Q 1375 441 1709 441 
Q 2250 441 2565 725 
Q 2881 1009 2881 1497 
Q 2881 1984 2565 2268 
Q 2250 2553 1709 2553 
Q 1456 2553 1204 2497 
Q 953 2441 691 2322 
L 691 4666 
z
" transform="scale(0.015625)"/>
      <path id="DejaVuSans-30" d="M 2034 4250 
Q 1547 4250 1301 3770 
Q 1056 3291 1056 2328 
Q 1056 1369 1301 889 
Q 1547 409 2034 409 
Q 2525 409 2770 889 
Q 3016 1369 3016 2328 
Q 3016 3291 2770 3770 
Q 2525 4250 2034 4250 
z
M 2034 4750 
Q 2819 4750 3233 4129 
Q 3647 3509 3647 2328 
Q 3647 1150 3233 529 
Q 2819 -91 2034 -91 
Q 1250 -91 836 529 
Q 422 1150 422 2328 
Q 422 3509 836 4129 
Q 1250 4750 2034 4750 
z
" transform="scale(0.015625)"/>
      <path id="DejaVuSans-2e" d="M 684 794 
L 1344 794 
L 1344 0 
L 684 0 
L 684 794 
z
" transform="scale(0.015625)"/>
      <path id="DejaVuSans-b5" d="M 544 -1331 
L 544 3500 
L 1119 3500 
L 1119 1325 
Q 1119 872 1334 640 
Q 1550 409 1972 409 
Q 2434 409 2667 671 
Q 2900 934 2900 1459 
L 2900 3500 
L 3475 3500 
L 3475 806 
Q 3475 619 3529 530 
Q 3584 441 3700 441 
Q 3728 441 3778 458 
Q 3828 475 3916 513 
L 3916 50 
Q 3788 -22 3673 -56 
Q 3559 -91 3450 -91 
Q 3234 -91 3106 31 
Q 2978 153 2931 403 
Q 2775 156 2548 32 
Q 2322 -91 2016 -91 
Q 1697 -91 1473 31 
Q 1250 153 1119 397 
L 1119 -1331 
L 544 -1331 
z
" transform="scale(0.015625)"/>
      <path id="DejaVuSans-6d" d="M 3328 2828 
Q 3544 3216 3844 3400 
Q 4144 3584 4550 3584 
Q 5097 3584 5394 3201 
Q 5691 2819 5691 2113 
L 5691 0 
L 5113 0 
L 5113 2094 
Q 5113 2597 4934 2840 
Q 4756 3084 4391 3084 
Q 3944 3084 3684 2787 
Q 3425 2491 3425 1978 
L 3425 0 
L 2847 0 
L 2847 2094 
Q 2847 2600 2669 2842 
Q 2491 3084 2119 3084 
Q 1678 3084 1418 2786 
Q 1159 2488 1159 1978 
L 1159 0 
L 581 0 
L 581 3500 
L 1159 3500 
L 1159 2956 
Q 1356 3278 1631 3431 
Q 1906 3584 2284 3584 
Q 2666 3584 2933 3390 
Q 3200 3197 3328 2828 
z
" transform="scale(0.015625)"/>
     </defs>
     <use xlink:href="#DejaVuSans-4c"/>
     <use xlink:href="#DejaVuSans-3d" transform="translate(55.712891 0)"/>
     <use xlink:href="#DejaVuSans-31" transform="translate(139.501953 0)"/>
     <use xlink:href="#DejaVuSans-35" transform="translate(203.125 0)"/>
     <use xlink:href="#DejaVuSans-30" transform="translate(266.748047 0)"/>
     <use xlink:href="#DejaVuSans-2e" transform="translate(330.371094 0)"/>
     <use xlink:href="#DejaVuSans-30" transform="translate(362.158203 0)"/>
     <use xlink:href="#DejaVuSans-b5" transform="translate(425.78125 0)"/>
     <use xlink:href="#DejaVuSans-6d" transform="translate(489.404297 0)"/>
    </g>
   </g>
   <g id="text_5">
    <!-- WG-Short -->
    <g style="fill: #b22222" transform="translate(212.236172 99.838281) scale(0.11 -0.11)">
     <defs>
      <path id="DejaVuSans-68" d="M 3513 2113 
L 3513 0 
L 2938 0 
L 2938 2094 
Q 2938 2591 2744 2837 
Q 2550 3084 2163 3084 
Q 1697 3084 1428 2787 
Q 1159 2491 1159 1978 
L 1159 0 
L 581 0 
L 581 4863 
L 1159 4863 
L 1159 2956 
Q 1366 3272 1645 3428 
Q 1925 3584 2291 3584 
Q 2894 3584 3203 3211 
Q 3513 2838 3513 2113 
z
" transform="scale(0.015625)"/>
     </defs>
     <use xlink:href="#DejaVuSans-57"/>
     <use xlink:href="#DejaVuSans-47" transform="translate(98.876953 0)"/>
     <use xlink:href="#DejaVuSans-2d" transform="translate(176.367188 0)"/>
     <use xlink:href="#DejaVuSans-53" transform="translate(212.451172 0)"/>
     <use xlink:href="#DejaVuSans-68" transform="translate(275.927734 0)"/>
     <use xlink:href="#DejaVuSans-6f" transform="translate(339.306641 0)"/>
     <use xlink:href="#DejaVuSans-72" transform="translate(400.488281 0)"/>
     <use xlink:href="#DejaVuSans-74" transform="translate(441.601562 0)"/>
    </g>
    <!-- L=100.0µm -->
    <g style="fill: #b22222" transform="translate(206.404453 110.484219) scale(0.11 -0.11)">
     <use xlink:href="#DejaVuSans-4c"/>
     <use xlink:href="#DejaVuSans-3d" transform="translate(55.712891 0)"/>
     <use xlink:href="#DejaVuSans-31" transform="translate(139.501953 0)"/>
     <use xlink:href="#DejaVuSans-30" transform="translate(203.125 0)"/>
     <use xlink:href="#DejaVuSans-30" transform="translate(266.748047 0)"/>
     <use xlink:href="#DejaVuSans-2e" transform="translate(330.371094 0)"/>
     <use xlink:href="#DejaVuSans-30" transform="translate(362.158203 0)"/>
     <use xlink:href="#DejaVuSans-b5" transform="translate(425.78125 0)"/>
     <use xlink:href="#DejaVuSans-6d" transform="translate(489.404297 0)"/>
    </g>
   </g>
   <g id="text_6">
    <!-- Combiner -->
    <g style="fill: #b22222" transform="translate(292.966328 24.392344) scale(0.11 -0.11)">
     <defs>
      <path id="DejaVuSans-62" d="M 3116 1747 
Q 3116 2381 2855 2742 
Q 2594 3103 2138 3103 
Q 1681 3103 1420 2742 
Q 1159 2381 1159 1747 
Q 1159 1113 1420 752 
Q 1681 391 2138 391 
Q 2594 391 2855 752 
Q 3116 1113 3116 1747 
z
M 1159 2969 
Q 1341 3281 1617 3432 
Q 1894 3584 2278 3584 
Q 2916 3584 3314 3078 
Q 3713 2572 3713 1747 
Q 3713 922 3314 415 
Q 2916 -91 2278 -91 
Q 1894 -91 1617 61 
Q 1341 213 1159 525 
L 1159 0 
L 581 0 
L 581 4863 
L 1159 4863 
L 1159 2969 
z
" transform="scale(0.015625)"/>
     </defs>
     <use xlink:href="#DejaVuSans-43"/>
     <use xlink:href="#DejaVuSans-6f" transform="translate(69.824219 0)"/>
     <use xlink:href="#DejaVuSans-6d" transform="translate(131.005859 0)"/>
     <use xlink:href="#DejaVuSans-62" transform="translate(228.417969 0)"/>
     <use xlink:href="#DejaVuSans-69" transform="translate(291.894531 0)"/>
     <use xlink:href="#DejaVuSans-6e" transform="translate(319.677734 0)"/>
     <use xlink:href="#DejaVuSans-65" transform="translate(383.056641 0)"/>
     <use xlink:href="#DejaVuSans-72" transform="translate(444.580078 0)"/>
    </g>
   </g>
   <g id="text_7">
    <!-- WG_Out -->
    <g style="fill: #b22222" transform="translate(351.258906 52.886406) scale(0.11 -0.11)">
     <defs>
      <path id="DejaVuSans-4f" d="M 2522 4238 
Q 1834 4238 1429 3725 
Q 1025 3213 1025 2328 
Q 1025 1447 1429 934 
Q 1834 422 2522 422 
Q 3209 422 3611 934 
Q 4013 1447 4013 2328 
Q 4013 3213 3611 3725 
Q 3209 4238 2522 4238 
z
M 2522 4750 
Q 3503 4750 4090 4092 
Q 4678 3434 4678 2328 
Q 4678 1225 4090 567 
Q 3503 -91 2522 -91 
Q 1538 -91 948 565 
Q 359 1222 359 2328 
Q 359 3434 948 4092 
Q 1538 4750 2522 4750 
z
" transform="scale(0.015625)"/>
      <path id="DejaVuSans-75" d="M 544 1381 
L 544 3500 
L 1119 3500 
L 1119 1403 
Q 1119 906 1312 657 
Q 1506 409 1894 409 
Q 2359 409 2629 706 
Q 2900 1003 2900 1516 
L 2900 3500 
L 3475 3500 
L 3475 0 
L 2900 0 
L 2900 538 
Q 2691 219 2414 64 
Q 2138 -91 1772 -91 
Q 1169 -91 856 284 
Q 544 659 544 1381 
z
M 1991 3584 
L 1991 3584 
z
" transform="scale(0.015625)"/>
     </defs>
     <use xlink:href="#DejaVuSans-57"/>
     <use xlink:href="#DejaVuSans-47" transform="translate(98.876953 0)"/>
     <use xlink:href="#DejaVuSans-5f" transform="translate(176.367188 0)"/>
     <use xlink:href="#DejaVuSans-4f" transform="translate(226.367188 0)"/>
     <use xlink:href="#DejaVuSans-75" transform="translate(305.078125 0)"/>
     <use xlink:href="#DejaVuSans-74" transform="translate(368.457031 0)"/>
    </g>
   </g>
   <g id="text_8">
    <!-- GC_Out -->
    <g transform="translate(415.856484 24.086406) scale(0.11 -0.11)">
     <use xlink:href="#DejaVuSans-47"/>
     <use xlink:href="#DejaVuSans-43" transform="translate(77.490234 0)"/>
     <use xlink:href="#DejaVuSans-5f" transform="translate(147.314453 0)"/>
     <use xlink:href="#DejaVuSans-4f" transform="translate(197.314453 0)"/>
     <use xlink:href="#DejaVuSans-75" transform="translate(276.025391 0)"/>
     <use xlink:href="#DejaVuSans-74" transform="translate(339.404297 0)"/>
    </g>
   </g>
  </g>
 </g>
 <defs>
  <clipPath id="p0e1a6ffa25">
   <rect x="0" y="0" width="477.36" height="118.16"/>
  </clipPath>
 </defs>
</svg>
