<?xml version="1.0" encoding="utf-8" standalone="no"?>
<!DOCTYPE svg PUBLIC "-//W3C//DTD SVG 1.1//EN"
  "http://www.w3.org/Graphics/SVG/1.1/DTD/svg11.dtd">
<svg xmlns:xlink="http://www.w3.org/1999/xlink" width="559.944pt" height="147pt" viewBox="0 0 559.944 147" xmlns="http://www.w3.org/2000/svg" version="1.1">
 <metadata>
  <rdf:RDF xmlns:dc="http://purl.org/dc/elements/1.1/" xmlns:cc="http://creativecommons.org/ns#" xmlns:rdf="http://www.w3.org/1999/02/22-rdf-syntax-ns#">
   <cc:Work>
    <dc:type rdf:resource="http://purl.org/dc/dcmitype/StillImage"/>
    <dc:date>2026-04-18T20:47:21.565571</dc:date>
    <dc:format>image/svg+xml</dc:format>
    <dc:creator>
     <cc:Agent>
      <dc:title>Matplotlib v3.10.8, https://matplotlib.org/</dc:title>
     </cc:Agent>
    </dc:creator>
   </cc:Work>
  </rdf:RDF>
 </metadata>
 <defs>
  <style type="text/css">*{stroke-linejoin: round; stroke-linecap: butt}</style>
 </defs>
 <g id="figure_1">
  <g id="patch_1">
   <path d="M 0 147 
L 559.944 147 
L 559.944 0 
L 0 0 
z
" style="fill: #ffffff"/>
  </g>
  <g id="axes_1">
   <g id="patch_2">
    <path d="M 60.264 92.28 
C 65.037656 92.28 69.616438 90.383406 72.991922 87.007922 
C 76.367406 83.632438 78.264 79.053656 78.264 74.28 
C 78.264 69.506344 76.367406 64.927562 72.991922 61.552078 
C 69.616438 58.176594 65.037656 56.28 60.264 56.28 
C 55.490344 56.28 50.911562 58.176594 47.536078 61.552078 
C 44.160594 64.927562 42.264 69.506344 42.264 74.28 
C 42.264 79.053656 44.160594 83.632438 47.536078 87.007922 
C 50.911562 90.383406 55.490344 92.28 60.264 92.28 
L 60.264 92.28 
z
" clip-path="url(#p7c42120d37)" style="fill: none; stroke: #000000; stroke-width: 2; stroke-linejoin: miter"/>
   </g>
   <g id="patch_3">
    <path d="M 186.264 29.28 
C 186.264 28.086984 185.789571 26.94161 184.945981 26.098019 
C 184.10239 25.254429 182.957016 24.78 181.764 24.78 
C 180.570984 24.78 179.42561 25.254429 178.582019 26.098019 
C 177.738429 26.94161 177.264 28.086984 177.264 29.28 
" clip-path="url(#p7c42120d37)" style="fill: none; stroke: #000000; stroke-width: 2; stroke-linejoin: miter"/>
   </g>
   <g id="patch_4">
    <path d="M 195.264 29.28 
C 195.264 28.086984 194.789571 26.94161 193.945981 26.098019 
C 193.10239 25.254429 191.957016 24.78 190.764 24.78 
C 189.570984 24.78 188.42561 25.254429 187.582019 26.098019 
C 186.738429 26.94161 186.264 28.086984 186.264 29.28 
" clip-path="url(#p7c42120d37)" style="fill: none; stroke: #000000; stroke-width: 2; stroke-linejoin: miter"/>
   </g>
   <g id="patch_5">
    <path d="M 204.264 29.28 
C 204.264 28.086984 203.789571 26.94161 202.945981 26.098019 
C 202.10239 25.254429 200.957016 24.78 199.764 24.78 
C 198.570984 24.78 197.42561 25.254429 196.582019 26.098019 
C 195.738429 26.94161 195.264 28.086984 195.264 29.28 
" clip-path="url(#p7c42120d37)" style="fill: none; stroke: #000000; stroke-width: 2; stroke-linejoin: miter"/>
   </g>
   <g id="patch_6">
    <path d="M 213.264 29.28 
C 213.264 28.086984 212.789571 26.94161 211.945981 26.098019 
C 211.10239 25.254429 209.957016 24.78 208.764 24.78 
C 207.570984 24.78 206.42561 25.254429 205.582019 26.098019 
C 204.738429 26.94161 204.264 28.086984 204.264 29.28 
" clip-path="url(#p7c42120d37)" style="fill: none; stroke: #000000; stroke-width: 2; stroke-linejoin: miter"/>
   </g>
   <g id="patch_7">
    <path d="M 276.264 29.28 
C 276.264 28.086984 275.789571 26.94161 274.945981 26.098019 
C 274.10239 25.254429 272.957016 24.78 271.764 24.78 
C 270.570984 24.78 269.42561 25.254429 268.582019 26.098019 
C 267.738429 26.94161 267.264 28.086984 267.264 29.28 
" clip-path="url(#p7c42120d37)" style="fill: none; stroke: #000000; stroke-width: 2; stroke-linejoin: miter"/>
   </g>
   <g id="patch_8">
    <path d="M 285.264 29.28 
C 285.264 28.086984 284.789571 26.94161 283.945981 26.098019 
C 283.10239 25.254429 281.957016 24.78 280.764 24.78 
C 279.570984 24.78 278.42561 25.254429 277.582019 26.098019 
C 276.738429 26.94161 276.264 28.086984 276.264 29.28 
" clip-path="url(#p7c42120d37)" style="fill: none; stroke: #000000; stroke-width: 2; stroke-linejoin: miter"/>
   </g>
   <g id="patch_9">
    <path d="M 294.264 29.28 
C 294.264 28.086984 293.789571 26.94161 292.945981 26.098019 
C 292.10239 25.254429 290.957016 24.78 289.764 24.78 
C 288.570984 24.78 287.42561 25.254429 286.582019 26.098019 
C 285.738429 26.94161 285.264 28.086984 285.264 29.28 
" clip-path="url(#p7c42120d37)" style="fill: none; stroke: #000000; stroke-width: 2; stroke-linejoin: miter"/>
   </g>
   <g id="patch_10">
    <path d="M 303.264 29.28 
C 303.264 28.086984 302.789571 26.94161 301.945981 26.098019 
C 301.10239 25.254429 299.957016 24.78 298.764 24.78 
C 297.570984 24.78 296.42561 25.254429 295.582019 26.098019 
C 294.738429 26.94161 294.264 28.086984 294.264 29.28 
" clip-path="url(#p7c42120d37)" style="fill: none; stroke: #000000; stroke-width: 2; stroke-linejoin: miter"/>
   </g>
   <g id="patch_11">
    <path d="M 438.264 29.28 
C 438.264 28.086984 437.789571 26.94161 436.945981 26.098019 
C 436.10239 25.254429 434.957016 24.78 433.764 24.78 
C 432.570984 24.78 431.42561 25.254429 430.582019 26.098019 
C 429.738429 26.94161 429.264 28.086984 429.264 29.28 
" clip-path="url(#p7c42120d37)" style="fill: none; stroke: #000000; stroke-width: 2; stroke-linejoin: miter"/>
   </g>
   <g id="patch_12">
    <path d="M 447.264 29.28 
C 447.264 28.086984 446.789571 26.94161 445.945981 26.098019 
C 445.10239 25.254429 443.957016 24.78 442.764 24.78 
C 441.570984 24.78 440.42561 25.254429 439.582019 26.098019 
C 438.738429 26.94161 438.264 28.086984 438.264 29.28 
" clip-path="url(#p7c42120d37)" style="fill: none; stroke: #000000; stroke-width: 2; stroke-linejoin: miter"/>
   </g>
   <g id="patch_13">
    <path d="M 456.264 29.28 
C 456.264 28.086984 455.789571 26.94161 454.945981 26.098019 
C 454.10239 25.254429 452.957016 24.78 451.764 24.78 
C 450.570984 24.78 449.42561 25.254429 448.582019 26.098019 
C 447.738429 26.94161 447.264 28.086984 447.264 29.28 
" clip-path="url(#p7c42120d37)" style="fill: none; stroke: #000000; stroke-width: 2; stroke-linejoin: miter"/>
   </g>
   <g id="patch_14">
    <path d="M 465.264 29.28 
C 465.264 28.086984 464.789571 26.94161 463.945981 26.098019 
C 463.10239 25.254429 461.957016 24.78 460.764 24.78 
C 459.570984 24.78 458.42561 25.254429 457.582019 26.098019 
C 456.738429 26.94161 456.264 28.086984 456.264 29.28 
" clip-path="url(#p7c42120d37)" style="fill: none; stroke: #000000; stroke-width: 2; stroke-linejoin: miter"/>
   </g>
   <g id="line2d_1">
    <path d="M 60.264 119.28 
L 60.264 133.68 
L 51.264 133.68 
L 69.264 133.68 
M 53.964 138 
L 66.564 138 
M 58.464 142.32 
L 62.064 142.32 
" clip-path="url(#p7c42120d37)" style="fill: none; stroke: #000000; stroke-width: 2; stroke-linecap: round"/>
   </g>
   <g id="line2d_2">
    <path d="M 60.264 119.28 
L 60.264 92.28 
L 60.264 92.28 
M 60.264 56.28 
L 60.264 56.28 
L 60.264 29.28 
" clip-path="url(#p7c42120d37)" style="fill: none; stroke: #000000; stroke-width: 2; stroke-linecap: round"/>
   </g>
   <g id="line2d_3">
    <path d="M 63.864 83.28 
L 56.664 83.28 
" clip-path="url(#p7c42120d37)" style="fill: none; stroke: #000000; stroke-width: 2; stroke-linecap: round"/>
   </g>
   <g id="line2d_4">
    <path d="M 60.264 68.88 
L 60.264 61.68 
" clip-path="url(#p7c42120d37)" style="fill: none; stroke: #000000; stroke-width: 2; stroke-linecap: round"/>
   </g>
   <g id="line2d_5">
    <path d="M 63.864 65.28 
L 56.664 65.28 
" clip-path="url(#p7c42120d37)" style="fill: none; stroke: #000000; stroke-width: 2; stroke-linecap: round"/>
   </g>
   <g id="line2d_6">
    <path d="M 60.264 29.28 
L 87.264 29.28 
L 90.264 20.28 
L 96.264 38.28 
L 102.264 20.28 
L 108.264 38.28 
L 114.264 20.28 
L 120.264 38.28 
L 123.264 29.28 
L 150.264 29.28 
" clip-path="url(#p7c42120d37)" style="fill: none; stroke: #000000; stroke-width: 2; stroke-linecap: round"/>
   </g>
   <g id="line2d_7">
    <path d="M 150.264 29.28 
L 177.264 29.28 
M 213.264 29.28 
L 240.264 29.28 
" clip-path="url(#p7c42120d37)" style="fill: none; stroke: #000000; stroke-width: 2; stroke-linecap: round"/>
   </g>
   <g id="line2d_8">
    <path d="M 240.264 29.28 
L 240.264 71.04 
M 249.264 71.04 
L 231.264 71.04 
M 249.264 77.52 
L 231.264 77.52 
M 240.264 77.52 
L 240.264 119.28 
" clip-path="url(#p7c42120d37)" style="fill: none; stroke: #000000; stroke-width: 2; stroke-linecap: round"/>
   </g>
   <g id="line2d_9">
    <path d="M 240.264 119.28 
L 240.264 133.68 
L 231.264 133.68 
L 249.264 133.68 
M 233.964 138 
L 246.564 138 
M 238.464 142.32 
L 242.064 142.32 
" clip-path="url(#p7c42120d37)" style="fill: none; stroke: #000000; stroke-width: 2; stroke-linecap: round"/>
   </g>
   <g id="line2d_10">
    <path d="M 240.264 29.28 
L 267.264 29.28 
M 303.264 29.28 
L 330.264 29.28 
" clip-path="url(#p7c42120d37)" style="fill: none; stroke: #000000; stroke-width: 2; stroke-linecap: round"/>
   </g>
   <g id="line2d_11">
    <path d="M 330.264 29.28 
L 330.264 71.04 
M 339.264 71.04 
L 321.264 71.04 
M 339.264 77.52 
L 321.264 77.52 
M 330.264 77.52 
L 330.264 119.28 
" clip-path="url(#p7c42120d37)" style="fill: none; stroke: #000000; stroke-width: 2; stroke-linecap: round"/>
   </g>
   <g id="line2d_12">
    <path d="M 330.264 119.28 
L 330.264 133.68 
L 321.264 133.68 
L 339.264 133.68 
M 323.964 138 
L 336.564 138 
M 328.464 142.32 
L 332.064 142.32 
" clip-path="url(#p7c42120d37)" style="fill: none; stroke: #000000; stroke-width: 2; stroke-linecap: round"/>
   </g>
   <g id="line2d_13">
    <path d="M 330.264 29.28 
L 348.264 29.28 
L 366.264 29.28 
" clip-path="url(#p7c42120d37)" style="fill: none; stroke-dasharray: 2,3.3; stroke-dashoffset: 0; stroke: #000000; stroke-width: 2"/>
   </g>
   <g id="line2d_14">
    <path d="M 366.264 29.28 
L 384.264 29.28 
L 402.264 29.28 
" clip-path="url(#p7c42120d37)" style="fill: none; stroke-dasharray: 2,3.3; stroke-dashoffset: 0; stroke: #000000; stroke-width: 2"/>
   </g>
   <g id="line2d_15">
    <path d="M 402.264 29.28 
L 429.264 29.28 
M 465.264 29.28 
L 492.264 29.28 
" clip-path="url(#p7c42120d37)" style="fill: none; stroke: #000000; stroke-width: 2; stroke-linecap: round"/>
   </g>
   <g id="line2d_16">
    <path d="M 492.264 29.28 
L 492.264 71.04 
M 501.264 71.04 
L 483.264 71.04 
M 501.264 77.52 
L 483.264 77.52 
M 492.264 77.52 
L 492.264 119.28 
" clip-path="url(#p7c42120d37)" style="fill: none; stroke: #000000; stroke-width: 2; stroke-linecap: round"/>
   </g>
   <g id="line2d_17">
    <path d="M 492.264 119.28 
L 492.264 133.68 
L 483.264 133.68 
L 501.264 133.68 
M 485.964 138 
L 498.564 138 
M 490.464 142.32 
L 494.064 142.32 
" clip-path="url(#p7c42120d37)" style="fill: none; stroke: #000000; stroke-width: 2; stroke-linecap: round"/>
   </g>
   <g id="line2d_18">
    <path d="M 492.264 29.28 
L 519.264 29.28 
L 546.264 29.28 
" clip-path="url(#p7c42120d37)" style="fill: none; stroke: #000000; stroke-width: 2; stroke-linecap: round"/>
   </g>
   <g id="line2d_19">
    <path d="M 546.264 29.28 
L 546.264 56.28 
L 555.264 59.28 
L 537.264 65.28 
L 555.264 71.28 
L 537.264 77.28 
L 555.264 83.28 
L 537.264 89.28 
L 546.264 92.28 
L 546.264 119.28 
" clip-path="url(#p7c42120d37)" style="fill: none; stroke: #000000; stroke-width: 2; stroke-linecap: round"/>
   </g>
   <g id="line2d_20">
    <path d="M 546.264 119.28 
L 546.264 133.68 
L 537.264 133.68 
L 555.264 133.68 
M 539.964 138 
L 552.564 138 
M 544.464 142.32 
L 548.064 142.32 
" clip-path="url(#p7c42120d37)" style="fill: none; stroke: #000000; stroke-width: 2; stroke-linecap: round"/>
   </g>
   <g id="text_1">
    <!-- $V_{in}$ -->
    <g transform="translate(22.464 71.784375) scale(0.12 -0.12)">
     <defs>
      <path id="DejaVuSans-Oblique-56" d="M 1319 0 
L 500 4666 
L 1119 4666 
L 1797 653 
L 4063 4666 
L 4750 4666 
L 2053 0 
L 1319 0 
z
" transform="scale(0.015625)"/>
      <path id="DejaVuSans-Oblique-69" d="M 1172 4863 
L 1747 4863 
L 1606 4134 
L 1031 4134 
L 1172 4863 
z
M 909 3500 
L 1484 3500 
L 800 0 
L 225 0 
L 909 3500 
z
" transform="scale(0.015625)"/>
      <path id="DejaVuSans-Oblique-6e" d="M 3566 2113 
L 3156 0 
L 2578 0 
L 2988 2091 
Q 3016 2238 3031 2350 
Q 3047 2463 3047 2528 
Q 3047 2791 2881 2937 
Q 2716 3084 2419 3084 
Q 1956 3084 1622 2776 
Q 1288 2469 1184 1941 
L 800 0 
L 225 0 
L 903 3500 
L 1478 3500 
L 1363 2950 
Q 1603 3253 1940 3418 
Q 2278 3584 2650 3584 
Q 3113 3584 3367 3334 
Q 3622 3084 3622 2631 
Q 3622 2519 3608 2391 
Q 3594 2263 3566 2113 
z
" transform="scale(0.015625)"/>
     </defs>
     <use xlink:href="#DejaVuSans-Oblique-56" transform="translate(0 0.09375)"/>
     <use xlink:href="#DejaVuSans-Oblique-69" transform="translate(68.408203 -16.3125) scale(0.7)"/>
     <use xlink:href="#DejaVuSans-Oblique-6e" transform="translate(87.856445 -16.3125) scale(0.7)"/>
    </g>
    <!-- (Step) -->
    <g transform="translate(1.975875 83.398125) scale(0.12 -0.12)">
     <defs>
      <path id="DejaVuSans-28" d="M 1984 4856 
Q 1566 4138 1362 3434 
Q 1159 2731 1159 2009 
Q 1159 1288 1364 580 
Q 1569 -128 1984 -844 
L 1484 -844 
Q 1016 -109 783 600 
Q 550 1309 550 2009 
Q 550 2706 781 3412 
Q 1013 4119 1484 4856 
L 1984 4856 
z
" transform="scale(0.015625)"/>
      <path id="DejaVuSans-53" d="M 3425 4513 
L 3425 3897 
Q 3066 4069 2747 4153 
Q 2428 4238 2131 4238 
Q 1616 4238 1336 4038 
Q 1056 3838 1056 3469 
Q 1056 3159 1242 3001 
Q 1428 2844 1947 2747 
L 2328 2669 
Q 3034 2534 3370 2195 
Q 3706 1856 3706 1288 
Q 3706 609 3251 259 
Q 2797 -91 1919 -91 
Q 1588 -91 1214 -16 
Q 841 59 441 206 
L 441 856 
Q 825 641 1194 531 
Q 1563 422 1919 422 
Q 2459 422 2753 634 
Q 3047 847 3047 1241 
Q 3047 1584 2836 1778 
Q 2625 1972 2144 2069 
L 1759 2144 
Q 1053 2284 737 2584 
Q 422 2884 422 3419 
Q 422 4038 858 4394 
Q 1294 4750 2059 4750 
Q 2388 4750 2728 4690 
Q 3069 4631 3425 4513 
z
" transform="scale(0.015625)"/>
      <path id="DejaVuSans-74" d="M 1172 4494 
L 1172 3500 
L 2356 3500 
L 2356 3053 
L 1172 3053 
L 1172 1153 
Q 1172 725 1289 603 
Q 1406 481 1766 481 
L 2356 481 
L 2356 0 
L 1766 0 
Q 1100 0 847 248 
Q 594 497 594 1153 
L 594 3053 
L 172 3053 
L 172 3500 
L 594 3500 
L 594 4494 
L 1172 4494 
z
" transform="scale(0.015625)"/>
      <path id="DejaVuSans-65" d="M 3597 1894 
L 3597 1613 
L 953 1613 
Q 991 1019 1311 708 
Q 1631 397 2203 397 
Q 2534 397 2845 478 
Q 3156 559 3463 722 
L 3463 178 
Q 3153 47 2828 -22 
Q 2503 -91 2169 -91 
Q 1331 -91 842 396 
Q 353 884 353 1716 
Q 353 2575 817 3079 
Q 1281 3584 2069 3584 
Q 2775 3584 3186 3129 
Q 3597 2675 3597 1894 
z
M 3022 2063 
Q 3016 2534 2758 2815 
Q 2500 3097 2075 3097 
Q 1594 3097 1305 2825 
Q 1016 2553 972 2059 
L 3022 2063 
z
" transform="scale(0.015625)"/>
      <path id="DejaVuSans-70" d="M 1159 525 
L 1159 -1331 
L 581 -1331 
L 581 3500 
L 1159 3500 
L 1159 2969 
Q 1341 3281 1617 3432 
Q 1894 3584 2278 3584 
Q 2916 3584 3314 3078 
Q 3713 2572 3713 1747 
Q 3713 922 3314 415 
Q 2916 -91 2278 -91 
Q 1894 -91 1617 61 
Q 1341 213 1159 525 
z
M 3116 1747 
Q 3116 2381 2855 2742 
Q 2594 3103 2138 3103 
Q 1681 3103 1420 2742 
Q 1159 2381 1159 1747 
Q 1159 1113 1420 752 
Q 1681 391 2138 391 
Q 2594 391 2855 752 
Q 3116 1113 3116 1747 
z
" transform="scale(0.015625)"/>
      <path id="DejaVuSans-29" d="M 513 4856 
L 1013 4856 
Q 1481 4119 1714 3412 
Q 1947 2706 1947 2009 
Q 1947 1309 1714 600 
Q 1481 -109 1013 -844 
L 513 -844 
Q 928 -128 1133 580 
Q 1338 1288 1338 2009 
Q 1338 2731 1133 3434 
Q 928 4138 513 4856 
z
" transform="scale(0.015625)"/>
     </defs>
     <use xlink:href="#DejaVuSans-28"/>
     <use xlink:href="#DejaVuSans-53" transform="translate(39.013672 0)"/>
     <use xlink:href="#DejaVuSans-74" transform="translate(102.490234 0)"/>
     <use xlink:href="#DejaVuSans-65" transform="translate(141.699219 0)"/>
     <use xlink:href="#DejaVuSans-70" transform="translate(203.222656 0)"/>
     <use xlink:href="#DejaVuSans-29" transform="translate(266.699219 0)"/>
    </g>
   </g>
   <g id="text_2">
    <!-- $R_{source}$ -->
    <g transform="translate(86.844 14.184375) scale(0.12 -0.12)">
     <defs>
      <path id="DejaVuSans-Oblique-52" d="M 1613 4147 
L 1294 2491 
L 2106 2491 
Q 2584 2491 2879 2755 
Q 3175 3019 3175 3444 
Q 3175 3784 2976 3965 
Q 2778 4147 2406 4147 
L 1613 4147 
z
M 2772 2241 
Q 2972 2194 3105 2009 
Q 3238 1825 3413 1275 
L 3809 0 
L 3144 0 
L 2778 1197 
Q 2638 1659 2453 1815 
Q 2269 1972 1888 1972 
L 1191 1972 
L 806 0 
L 172 0 
L 1081 4666 
L 2503 4666 
Q 3150 4666 3495 4373 
Q 3841 4081 3841 3531 
Q 3841 3044 3547 2687 
Q 3253 2331 2772 2241 
z
" transform="scale(0.015625)"/>
      <path id="DejaVuSans-Oblique-73" d="M 3200 3397 
L 3091 2853 
Q 2863 2978 2609 3040 
Q 2356 3103 2088 3103 
Q 1634 3103 1373 2948 
Q 1113 2794 1113 2528 
Q 1113 2219 1719 2053 
Q 1766 2041 1788 2034 
L 1972 1978 
Q 2547 1819 2739 1644 
Q 2931 1469 2931 1166 
Q 2931 609 2489 259 
Q 2047 -91 1331 -91 
Q 1053 -91 747 -37 
Q 441 16 72 128 
L 184 722 
Q 500 559 806 475 
Q 1113 391 1394 391 
Q 1816 391 2080 572 
Q 2344 753 2344 1031 
Q 2344 1331 1650 1516 
L 1591 1531 
L 1394 1581 
Q 956 1697 753 1886 
Q 550 2075 550 2369 
Q 550 2928 970 3256 
Q 1391 3584 2113 3584 
Q 2397 3584 2667 3537 
Q 2938 3491 3200 3397 
z
" transform="scale(0.015625)"/>
      <path id="DejaVuSans-Oblique-6f" d="M 1625 -91 
Q 1009 -91 651 289 
Q 294 669 294 1325 
Q 294 1706 417 2101 
Q 541 2497 738 2766 
Q 1047 3184 1428 3384 
Q 1809 3584 2291 3584 
Q 2888 3584 3255 3212 
Q 3622 2841 3622 2241 
Q 3622 1825 3500 1412 
Q 3378 1000 3181 728 
Q 2875 309 2494 109 
Q 2113 -91 1625 -91 
z
M 891 1344 
Q 891 869 1089 633 
Q 1288 397 1691 397 
Q 2269 397 2648 901 
Q 3028 1406 3028 2181 
Q 3028 2634 2825 2865 
Q 2622 3097 2228 3097 
Q 1903 3097 1650 2945 
Q 1397 2794 1197 2484 
Q 1050 2253 970 1956 
Q 891 1659 891 1344 
z
" transform="scale(0.015625)"/>
      <path id="DejaVuSans-Oblique-75" d="M 428 1388 
L 838 3500 
L 1416 3500 
L 1006 1409 
Q 975 1256 961 1147 
Q 947 1038 947 966 
Q 947 700 1109 554 
Q 1272 409 1569 409 
Q 2031 409 2368 721 
Q 2706 1034 2809 1563 
L 3194 3500 
L 3769 3500 
L 3091 0 
L 2516 0 
L 2631 550 
Q 2388 244 2052 76 
Q 1716 -91 1338 -91 
Q 878 -91 622 161 
Q 366 413 366 863 
Q 366 956 381 1097 
Q 397 1238 428 1388 
z
" transform="scale(0.015625)"/>
      <path id="DejaVuSans-Oblique-72" d="M 2853 2969 
Q 2766 3016 2653 3041 
Q 2541 3066 2413 3066 
Q 1953 3066 1609 2717 
Q 1266 2369 1153 1784 
L 800 0 
L 225 0 
L 909 3500 
L 1484 3500 
L 1375 2956 
Q 1603 3259 1920 3421 
Q 2238 3584 2597 3584 
Q 2691 3584 2781 3573 
Q 2872 3563 2963 3538 
L 2853 2969 
z
" transform="scale(0.015625)"/>
      <path id="DejaVuSans-Oblique-63" d="M 3431 3366 
L 3316 2797 
Q 3109 2947 2876 3022 
Q 2644 3097 2394 3097 
Q 2119 3097 1870 3000 
Q 1622 2903 1453 2725 
Q 1184 2453 1037 2087 
Q 891 1722 891 1331 
Q 891 859 1127 628 
Q 1363 397 1844 397 
Q 2081 397 2348 469 
Q 2616 541 2906 684 
L 2797 116 
Q 2547 13 2283 -39 
Q 2019 -91 1741 -91 
Q 1044 -91 669 257 
Q 294 606 294 1253 
Q 294 1797 489 2255 
Q 684 2713 1069 3078 
Q 1331 3328 1684 3456 
Q 2038 3584 2456 3584 
Q 2700 3584 2940 3529 
Q 3181 3475 3431 3366 
z
" transform="scale(0.015625)"/>
      <path id="DejaVuSans-Oblique-65" d="M 3078 2063 
Q 3088 2113 3092 2166 
Q 3097 2219 3097 2272 
Q 3097 2653 2873 2875 
Q 2650 3097 2266 3097 
Q 1838 3097 1509 2826 
Q 1181 2556 1013 2059 
L 3078 2063 
z
M 3578 1613 
L 903 1613 
Q 884 1494 878 1425 
Q 872 1356 872 1306 
Q 872 872 1139 634 
Q 1406 397 1894 397 
Q 2269 397 2603 481 
Q 2938 566 3225 728 
L 3116 159 
Q 2806 34 2476 -28 
Q 2147 -91 1806 -91 
Q 1078 -91 686 257 
Q 294 606 294 1247 
Q 294 1794 489 2264 
Q 684 2734 1063 3103 
Q 1306 3334 1642 3459 
Q 1978 3584 2356 3584 
Q 2950 3584 3301 3228 
Q 3653 2872 3653 2272 
Q 3653 2128 3634 1964 
Q 3616 1800 3578 1613 
z
" transform="scale(0.015625)"/>
     </defs>
     <use xlink:href="#DejaVuSans-Oblique-52" transform="translate(0 0.09375)"/>
     <use xlink:href="#DejaVuSans-Oblique-73" transform="translate(69.482422 -16.3125) scale(0.7)"/>
     <use xlink:href="#DejaVuSans-Oblique-6f" transform="translate(105.952148 -16.3125) scale(0.7)"/>
     <use xlink:href="#DejaVuSans-Oblique-75" transform="translate(148.779297 -16.3125) scale(0.7)"/>
     <use xlink:href="#DejaVuSans-Oblique-72" transform="translate(193.144531 -16.3125) scale(0.7)"/>
     <use xlink:href="#DejaVuSans-Oblique-63" transform="translate(221.923828 -16.3125) scale(0.7)"/>
     <use xlink:href="#DejaVuSans-Oblique-65" transform="translate(260.410156 -16.3125) scale(0.7)"/>
    </g>
   </g>
   <g id="text_3">
    <!-- $L_0$ -->
    <g transform="translate(189.084 18.684397) scale(0.12 -0.12)">
     <defs>
      <path id="DejaVuSans-Oblique-4c" d="M 1075 4666 
L 1709 4666 
L 909 525 
L 3181 525 
L 3078 0 
L 172 0 
L 1075 4666 
z
" transform="scale(0.015625)"/>
      <path id="DejaVuSans-30" d="M 2034 4250 
Q 1547 4250 1301 3770 
Q 1056 3291 1056 2328 
Q 1056 1369 1301 889 
Q 1547 409 2034 409 
Q 2525 409 2770 889 
Q 3016 1369 3016 2328 
Q 3016 3291 2770 3770 
Q 2525 4250 2034 4250 
z
M 2034 4750 
Q 2819 4750 3233 4129 
Q 3647 3509 3647 2328 
Q 3647 1150 3233 529 
Q 2819 -91 2034 -91 
Q 1250 -91 836 529 
Q 422 1150 422 2328 
Q 422 3509 836 4129 
Q 1250 4750 2034 4750 
z
" transform="scale(0.015625)"/>
     </defs>
     <use xlink:href="#DejaVuSans-Oblique-4c" transform="translate(0 0.09375)"/>
     <use xlink:href="#DejaVuSans-30" transform="translate(55.712891 -16.3125) scale(0.7)"/>
    </g>
   </g>
   <g id="text_4">
    <!-- $C_0$ -->
    <g transform="translate(213.504 77.59125) scale(0.12 -0.12)">
     <defs>
      <path id="DejaVuSans-Oblique-43" d="M 4447 4306 
L 4319 3641 
Q 4019 3944 3683 4091 
Q 3347 4238 2956 4238 
Q 2422 4238 2017 3981 
Q 1613 3725 1319 3200 
Q 1131 2863 1032 2486 
Q 934 2109 934 1728 
Q 934 1091 1264 756 
Q 1594 422 2222 422 
Q 2656 422 3056 561 
Q 3456 700 3834 978 
L 3688 231 
Q 3316 72 2936 -9 
Q 2556 -91 2175 -91 
Q 1278 -91 773 396 
Q 269 884 269 1753 
Q 269 2309 461 2846 
Q 653 3384 1013 3828 
Q 1394 4300 1883 4525 
Q 2372 4750 3022 4750 
Q 3422 4750 3780 4639 
Q 4138 4528 4447 4306 
z
" transform="scale(0.015625)"/>
     </defs>
     <use xlink:href="#DejaVuSans-Oblique-43" transform="translate(0 0.78125)"/>
     <use xlink:href="#DejaVuSans-30" transform="translate(69.824219 -15.625) scale(0.7)"/>
    </g>
   </g>
   <g id="text_5">
    <!-- $L_1$ -->
    <g transform="translate(279.084 18.684397) scale(0.12 -0.12)">
     <defs>
      <path id="DejaVuSans-31" d="M 794 531 
L 1825 531 
L 1825 4091 
L 703 3866 
L 703 4441 
L 1819 4666 
L 2450 4666 
L 2450 531 
L 3481 531 
L 3481 0 
L 794 0 
L 794 531 
z
" transform="scale(0.015625)"/>
     </defs>
     <use xlink:href="#DejaVuSans-Oblique-4c" transform="translate(0 0.09375)"/>
     <use xlink:href="#DejaVuSans-31" transform="translate(55.712891 -16.3125) scale(0.7)"/>
    </g>
   </g>
   <g id="text_6">
    <!-- $C_1$ -->
    <g transform="translate(303.504 77.59125) scale(0.12 -0.12)">
     <use xlink:href="#DejaVuSans-Oblique-43" transform="translate(0 0.78125)"/>
     <use xlink:href="#DejaVuSans-31" transform="translate(69.824219 -15.625) scale(0.7)"/>
    </g>
   </g>
   <g id="text_7">
    <!--  ... 500 Sections ...  -->
    <g transform="translate(312.017437 19.99125) scale(0.12 -0.12)">
     <defs>
      <path id="DejaVuSans-20" transform="scale(0.015625)"/>
      <path id="DejaVuSans-2e" d="M 684 794 
L 1344 794 
L 1344 0 
L 684 0 
L 684 794 
z
" transform="scale(0.015625)"/>
      <path id="DejaVuSans-35" d="M 691 4666 
L 3169 4666 
L 3169 4134 
L 1269 4134 
L 1269 2991 
Q 1406 3038 1543 3061 
Q 1681 3084 1819 3084 
Q 2600 3084 3056 2656 
Q 3513 2228 3513 1497 
Q 3513 744 3044 326 
Q 2575 -91 1722 -91 
Q 1428 -91 1123 -41 
Q 819 9 494 109 
L 494 744 
Q 775 591 1075 516 
Q 1375 441 1709 441 
Q 2250 441 2565 725 
Q 2881 1009 2881 1497 
Q 2881 1984 2565 2268 
Q 2250 2553 1709 2553 
Q 1456 2553 1204 2497 
Q 953 2441 691 2322 
L 691 4666 
z
" transform="scale(0.015625)"/>
      <path id="DejaVuSans-63" d="M 3122 3366 
L 3122 2828 
Q 2878 2963 2633 3030 
Q 2388 3097 2138 3097 
Q 1578 3097 1268 2742 
Q 959 2388 959 1747 
Q 959 1106 1268 751 
Q 1578 397 2138 397 
Q 2388 397 2633 464 
Q 2878 531 3122 666 
L 3122 134 
Q 2881 22 2623 -34 
Q 2366 -91 2075 -91 
Q 1284 -91 818 406 
Q 353 903 353 1747 
Q 353 2603 823 3093 
Q 1294 3584 2113 3584 
Q 2378 3584 2631 3529 
Q 2884 3475 3122 3366 
z
" transform="scale(0.015625)"/>
      <path id="DejaVuSans-69" d="M 603 3500 
L 1178 3500 
L 1178 0 
L 603 0 
L 603 3500 
z
M 603 4863 
L 1178 4863 
L 1178 4134 
L 603 4134 
L 603 4863 
z
" transform="scale(0.015625)"/>
      <path id="DejaVuSans-6f" d="M 1959 3097 
Q 1497 3097 1228 2736 
Q 959 2375 959 1747 
Q 959 1119 1226 758 
Q 1494 397 1959 397 
Q 2419 397 2687 759 
Q 2956 1122 2956 1747 
Q 2956 2369 2687 2733 
Q 2419 3097 1959 3097 
z
M 1959 3584 
Q 2709 3584 3137 3096 
Q 3566 2609 3566 1747 
Q 3566 888 3137 398 
Q 2709 -91 1959 -91 
Q 1206 -91 779 398 
Q 353 888 353 1747 
Q 353 2609 779 3096 
Q 1206 3584 1959 3584 
z
" transform="scale(0.015625)"/>
      <path id="DejaVuSans-6e" d="M 3513 2113 
L 3513 0 
L 2938 0 
L 2938 2094 
Q 2938 2591 2744 2837 
Q 2550 3084 2163 3084 
Q 1697 3084 1428 2787 
Q 1159 2491 1159 1978 
L 1159 0 
L 581 0 
L 581 3500 
L 1159 3500 
L 1159 2956 
Q 1366 3272 1645 3428 
Q 1925 3584 2291 3584 
Q 2894 3584 3203 3211 
Q 3513 2838 3513 2113 
z
" transform="scale(0.015625)"/>
      <path id="DejaVuSans-73" d="M 2834 3397 
L 2834 2853 
Q 2591 2978 2328 3040 
Q 2066 3103 1784 3103 
Q 1356 3103 1142 2972 
Q 928 2841 928 2578 
Q 928 2378 1081 2264 
Q 1234 2150 1697 2047 
L 1894 2003 
Q 2506 1872 2764 1633 
Q 3022 1394 3022 966 
Q 3022 478 2636 193 
Q 2250 -91 1575 -91 
Q 1294 -91 989 -36 
Q 684 19 347 128 
L 347 722 
Q 666 556 975 473 
Q 1284 391 1588 391 
Q 1994 391 2212 530 
Q 2431 669 2431 922 
Q 2431 1156 2273 1281 
Q 2116 1406 1581 1522 
L 1381 1569 
Q 847 1681 609 1914 
Q 372 2147 372 2553 
Q 372 3047 722 3315 
Q 1072 3584 1716 3584 
Q 2034 3584 2315 3537 
Q 2597 3491 2834 3397 
z
" transform="scale(0.015625)"/>
     </defs>
     <use xlink:href="#DejaVuSans-20"/>
     <use xlink:href="#DejaVuSans-2e" transform="translate(31.787109 0)"/>
     <use xlink:href="#DejaVuSans-2e" transform="translate(63.574219 0)"/>
     <use xlink:href="#DejaVuSans-2e" transform="translate(95.361328 0)"/>
     <use xlink:href="#DejaVuSans-20" transform="translate(127.148438 0)"/>
     <use xlink:href="#DejaVuSans-35" transform="translate(158.935547 0)"/>
     <use xlink:href="#DejaVuSans-30" transform="translate(222.558594 0)"/>
     <use xlink:href="#DejaVuSans-30" transform="translate(286.181641 0)"/>
     <use xlink:href="#DejaVuSans-20" transform="translate(349.804688 0)"/>
     <use xlink:href="#DejaVuSans-53" transform="translate(381.591797 0)"/>
     <use xlink:href="#DejaVuSans-65" transform="translate(445.068359 0)"/>
     <use xlink:href="#DejaVuSans-63" transform="translate(506.591797 0)"/>
     <use xlink:href="#DejaVuSans-74" transform="translate(561.572266 0)"/>
     <use xlink:href="#DejaVuSans-69" transform="translate(600.78125 0)"/>
     <use xlink:href="#DejaVuSans-6f" transform="translate(628.564453 0)"/>
     <use xlink:href="#DejaVuSans-6e" transform="translate(689.746094 0)"/>
     <use xlink:href="#DejaVuSans-73" transform="translate(753.125 0)"/>
     <use xlink:href="#DejaVuSans-20" transform="translate(805.224609 0)"/>
     <use xlink:href="#DejaVuSans-2e" transform="translate(837.011719 0)"/>
     <use xlink:href="#DejaVuSans-2e" transform="translate(868.798828 0)"/>
     <use xlink:href="#DejaVuSans-2e" transform="translate(900.585938 0)"/>
     <use xlink:href="#DejaVuSans-20" transform="translate(932.373047 0)"/>
    </g>
   </g>
   <g id="text_8">
    <!--  ... 500 Sections ...  -->
    <g transform="translate(312.017437 19.99125) scale(0.12 -0.12)">
     <use xlink:href="#DejaVuSans-20"/>
     <use xlink:href="#DejaVuSans-2e" transform="translate(31.787109 0)"/>
     <use xlink:href="#DejaVuSans-2e" transform="translate(63.574219 0)"/>
     <use xlink:href="#DejaVuSans-2e" transform="translate(95.361328 0)"/>
     <use xlink:href="#DejaVuSans-20" transform="translate(127.148438 0)"/>
     <use xlink:href="#DejaVuSans-35" transform="translate(158.935547 0)"/>
     <use xlink:href="#DejaVuSans-30" transform="translate(222.558594 0)"/>
     <use xlink:href="#DejaVuSans-30" transform="translate(286.181641 0)"/>
     <use xlink:href="#DejaVuSans-20" transform="translate(349.804688 0)"/>
     <use xlink:href="#DejaVuSans-53" transform="translate(381.591797 0)"/>
     <use xlink:href="#DejaVuSans-65" transform="translate(445.068359 0)"/>
     <use xlink:href="#DejaVuSans-63" transform="translate(506.591797 0)"/>
     <use xlink:href="#DejaVuSans-74" transform="translate(561.572266 0)"/>
     <use xlink:href="#DejaVuSans-69" transform="translate(600.78125 0)"/>
     <use xlink:href="#DejaVuSans-6f" transform="translate(628.564453 0)"/>
     <use xlink:href="#DejaVuSans-6e" transform="translate(689.746094 0)"/>
     <use xlink:href="#DejaVuSans-73" transform="translate(753.125 0)"/>
     <use xlink:href="#DejaVuSans-20" transform="translate(805.224609 0)"/>
     <use xlink:href="#DejaVuSans-2e" transform="translate(837.011719 0)"/>
     <use xlink:href="#DejaVuSans-2e" transform="translate(868.798828 0)"/>
     <use xlink:href="#DejaVuSans-2e" transform="translate(900.585938 0)"/>
     <use xlink:href="#DejaVuSans-20" transform="translate(932.373047 0)"/>
    </g>
   </g>
   <g id="text_9">
    <!--  ... 500 Sections ...  -->
    <g transform="translate(312.017437 19.99125) scale(0.12 -0.12)">
     <use xlink:href="#DejaVuSans-20"/>
     <use xlink:href="#DejaVuSans-2e" transform="translate(31.787109 0)"/>
     <use xlink:href="#DejaVuSans-2e" transform="translate(63.574219 0)"/>
     <use xlink:href="#DejaVuSans-2e" transform="translate(95.361328 0)"/>
     <use xlink:href="#DejaVuSans-20" transform="translate(127.148438 0)"/>
     <use xlink:href="#DejaVuSans-35" transform="translate(158.935547 0)"/>
     <use xlink:href="#DejaVuSans-30" transform="translate(222.558594 0)"/>
     <use xlink:href="#DejaVuSans-30" transform="translate(286.181641 0)"/>
     <use xlink:href="#DejaVuSans-20" transform="translate(349.804688 0)"/>
     <use xlink:href="#DejaVuSans-53" transform="translate(381.591797 0)"/>
     <use xlink:href="#DejaVuSans-65" transform="translate(445.068359 0)"/>
     <use xlink:href="#DejaVuSans-63" transform="translate(506.591797 0)"/>
     <use xlink:href="#DejaVuSans-74" transform="translate(561.572266 0)"/>
     <use xlink:href="#DejaVuSans-69" transform="translate(600.78125 0)"/>
     <use xlink:href="#DejaVuSans-6f" transform="translate(628.564453 0)"/>
     <use xlink:href="#DejaVuSans-6e" transform="translate(689.746094 0)"/>
     <use xlink:href="#DejaVuSans-73" transform="translate(753.125 0)"/>
     <use xlink:href="#DejaVuSans-20" transform="translate(805.224609 0)"/>
     <use xlink:href="#DejaVuSans-2e" transform="translate(837.011719 0)"/>
     <use xlink:href="#DejaVuSans-2e" transform="translate(868.798828 0)"/>
     <use xlink:href="#DejaVuSans-2e" transform="translate(900.585938 0)"/>
     <use xlink:href="#DejaVuSans-20" transform="translate(932.373047 0)"/>
    </g>
   </g>
   <g id="text_10">
    <!--  ... 500 Sections ...  -->
    <g transform="translate(312.017437 19.99125) scale(0.12 -0.12)">
     <use xlink:href="#DejaVuSans-20"/>
     <use xlink:href="#DejaVuSans-2e" transform="translate(31.787109 0)"/>
     <use xlink:href="#DejaVuSans-2e" transform="translate(63.574219 0)"/>
     <use xlink:href="#DejaVuSans-2e" transform="translate(95.361328 0)"/>
     <use xlink:href="#DejaVuSans-20" transform="translate(127.148438 0)"/>
     <use xlink:href="#DejaVuSans-35" transform="translate(158.935547 0)"/>
     <use xlink:href="#DejaVuSans-30" transform="translate(222.558594 0)"/>
     <use xlink:href="#DejaVuSans-30" transform="translate(286.181641 0)"/>
     <use xlink:href="#DejaVuSans-20" transform="translate(349.804688 0)"/>
     <use xlink:href="#DejaVuSans-53" transform="translate(381.591797 0)"/>
     <use xlink:href="#DejaVuSans-65" transform="translate(445.068359 0)"/>
     <use xlink:href="#DejaVuSans-63" transform="translate(506.591797 0)"/>
     <use xlink:href="#DejaVuSans-74" transform="translate(561.572266 0)"/>
     <use xlink:href="#DejaVuSans-69" transform="translate(600.78125 0)"/>
     <use xlink:href="#DejaVuSans-6f" transform="translate(628.564453 0)"/>
     <use xlink:href="#DejaVuSans-6e" transform="translate(689.746094 0)"/>
     <use xlink:href="#DejaVuSans-73" transform="translate(753.125 0)"/>
     <use xlink:href="#DejaVuSans-20" transform="translate(805.224609 0)"/>
     <use xlink:href="#DejaVuSans-2e" transform="translate(837.011719 0)"/>
     <use xlink:href="#DejaVuSans-2e" transform="translate(868.798828 0)"/>
     <use xlink:href="#DejaVuSans-2e" transform="translate(900.585938 0)"/>
     <use xlink:href="#DejaVuSans-20" transform="translate(932.373047 0)"/>
    </g>
   </g>
   <g id="text_11">
    <!-- $L_{N}$ -->
    <g transform="translate(440.604 18.684397) scale(0.12 -0.12)">
     <defs>
      <path id="DejaVuSans-Oblique-4e" d="M 1081 4666 
L 1931 4666 
L 3219 666 
L 4000 4666 
L 4616 4666 
L 3706 0 
L 2853 0 
L 1569 4025 
L 788 0 
L 172 0 
L 1081 4666 
z
" transform="scale(0.015625)"/>
     </defs>
     <use xlink:href="#DejaVuSans-Oblique-4c" transform="translate(0 0.09375)"/>
     <use xlink:href="#DejaVuSans-Oblique-4e" transform="translate(55.712891 -16.3125) scale(0.7)"/>
    </g>
   </g>
   <g id="text_12">
    <!-- $C_{N}$ -->
    <g transform="translate(464.664 77.59125) scale(0.12 -0.12)">
     <use xlink:href="#DejaVuSans-Oblique-43" transform="translate(0 0.78125)"/>
     <use xlink:href="#DejaVuSans-Oblique-4e" transform="translate(69.824219 -15.625) scale(0.7)"/>
    </g>
   </g>
   <g id="text_13">
    <!-- $R_{load}$ -->
    <g transform="translate(507.024 77.59125) scale(0.12 -0.12)">
     <defs>
      <path id="DejaVuSans-Oblique-6c" d="M 1172 4863 
L 1747 4863 
L 800 0 
L 225 0 
L 1172 4863 
z
" transform="scale(0.015625)"/>
      <path id="DejaVuSans-Oblique-61" d="M 3438 1997 
L 3047 0 
L 2472 0 
L 2578 531 
Q 2325 219 2001 64 
Q 1678 -91 1281 -91 
Q 834 -91 548 182 
Q 263 456 263 884 
Q 263 1497 752 1853 
Q 1241 2209 2100 2209 
L 2900 2209 
L 2931 2363 
Q 2938 2388 2941 2417 
Q 2944 2447 2944 2509 
Q 2944 2788 2717 2942 
Q 2491 3097 2081 3097 
Q 1800 3097 1504 3025 
Q 1209 2953 897 2809 
L 997 3341 
Q 1322 3463 1633 3523 
Q 1944 3584 2234 3584 
Q 2853 3584 3176 3315 
Q 3500 3047 3500 2534 
Q 3500 2431 3484 2292 
Q 3469 2153 3438 1997 
z
M 2816 1759 
L 2241 1759 
Q 1534 1759 1195 1570 
Q 856 1381 856 984 
Q 856 709 1029 553 
Q 1203 397 1509 397 
Q 1978 397 2328 733 
Q 2678 1069 2791 1631 
L 2816 1759 
z
" transform="scale(0.015625)"/>
      <path id="DejaVuSans-Oblique-64" d="M 2675 525 
Q 2444 222 2128 65 
Q 1813 -91 1428 -91 
Q 903 -91 598 267 
Q 294 625 294 1247 
Q 294 1766 478 2236 
Q 663 2706 1013 3078 
Q 1244 3325 1534 3454 
Q 1825 3584 2144 3584 
Q 2481 3584 2739 3421 
Q 2997 3259 3138 2956 
L 3513 4863 
L 4091 4863 
L 3144 0 
L 2566 0 
L 2675 525 
z
M 891 1350 
Q 891 897 1095 644 
Q 1300 391 1663 391 
Q 1931 391 2161 520 
Q 2391 650 2566 903 
Q 2750 1166 2856 1509 
Q 2963 1853 2963 2188 
Q 2963 2622 2758 2865 
Q 2553 3109 2194 3109 
Q 1922 3109 1687 2981 
Q 1453 2853 1288 2613 
Q 1106 2353 998 2009 
Q 891 1666 891 1350 
z
" transform="scale(0.015625)"/>
     </defs>
     <use xlink:href="#DejaVuSans-Oblique-52" transform="translate(0 0.09375)"/>
     <use xlink:href="#DejaVuSans-Oblique-6c" transform="translate(69.482422 -16.3125) scale(0.7)"/>
     <use xlink:href="#DejaVuSans-Oblique-6f" transform="translate(88.930664 -16.3125) scale(0.7)"/>
     <use xlink:href="#DejaVuSans-Oblique-61" transform="translate(131.757812 -16.3125) scale(0.7)"/>
     <use xlink:href="#DejaVuSans-Oblique-64" transform="translate(174.65332 -16.3125) scale(0.7)"/>
    </g>
   </g>
  </g>
 </g>
 <defs>
  <clipPath id="p7c42120d37">
   <rect x="0" y="0" width="559.944" height="147"/>
  </clipPath>
 </defs>
</svg>
