<?xml version="1.0" encoding="utf-8" standalone="no"?>
<!DOCTYPE svg PUBLIC "-//W3C//DTD SVG 1.1//EN"
  "http://www.w3.org/Graphics/SVG/1.1/DTD/svg11.dtd">
<svg xmlns:xlink="http://www.w3.org/1999/xlink" width="449.388pt" height="190.238884pt" viewBox="0 0 449.388 190.238884" xmlns="http://www.w3.org/2000/svg" version="1.1">
 <metadata>
  <rdf:RDF xmlns:dc="http://purl.org/dc/elements/1.1/" xmlns:cc="http://creativecommons.org/ns#" xmlns:rdf="http://www.w3.org/1999/02/22-rdf-syntax-ns#">
   <cc:Work>
    <dc:type rdf:resource="http://purl.org/dc/dcmitype/StillImage"/>
    <dc:date>2026-04-27T11:54:39.783291</dc:date>
    <dc:format>image/svg+xml</dc:format>
    <dc:creator>
     <cc:Agent>
      <dc:title>Matplotlib v3.10.8, https://matplotlib.org/</dc:title>
     </cc:Agent>
    </dc:creator>
   </cc:Work>
  </rdf:RDF>
 </metadata>
 <defs>
  <style type="text/css">*{stroke-linejoin: round; stroke-linecap: butt}</style>
 </defs>
 <g id="figure_1">
  <g id="patch_1">
   <path d="M 0 190.238884 
L 449.388 190.238884 
L 449.388 0 
L 0 0 
z
" style="fill: #ffffff"/>
  </g>
  <g id="axes_1">
   <g id="patch_2">
    <path d="M 22.68 119.958884 
C 27.453656 119.958884 32.032438 118.062291 35.407922 114.686807 
C 38.783406 111.311322 40.68 106.73254 40.68 101.958884 
C 40.68 97.185229 38.783406 92.606447 35.407922 89.230962 
C 32.032438 85.855478 27.453656 83.958884 22.68 83.958884 
C 17.906344 83.958884 13.327562 85.855478 9.952078 89.230962 
C 6.576594 92.606447 4.68 97.185229 4.68 101.958884 
C 4.68 106.73254 6.576594 111.311322 9.952078 114.686807 
C 13.327562 118.062291 17.906344 119.958884 22.68 119.958884 
L 22.68 119.958884 
z
" clip-path="url(#p75beb87e9b)" style="fill: none; stroke: #000000; stroke-width: 2; stroke-linejoin: miter"/>
   </g>
   <g id="line2d_1">
    <path d="M 22.68 155.958884 
L 22.68 119.958884 
L 22.68 119.958884 
M 22.68 83.958884 
L 22.68 83.958884 
L 22.68 47.958884 
" clip-path="url(#p75beb87e9b)" style="fill: none; stroke: #000000; stroke-width: 2; stroke-linecap: round"/>
   </g>
   <g id="line2d_2">
    <path d="M 31.68 101.958884 
L 30.93 100.095387 
L 30.18 98.358884 
L 29.43 96.867716 
L 28.68 95.723502 
L 27.93 95.004219 
L 27.18 94.758884 
L 26.43 95.004219 
L 25.68 95.723502 
L 24.93 96.867716 
L 24.18 98.358884 
L 23.43 100.095387 
L 22.68 101.958884 
L 21.93 103.822382 
L 21.18 105.558884 
L 20.43 107.050053 
L 19.68 108.194267 
L 18.93 108.91355 
L 18.18 109.158884 
L 17.43 108.91355 
L 16.68 108.194267 
L 15.93 107.050053 
L 15.18 105.558884 
L 14.43 103.822382 
L 13.68 101.958884 
" clip-path="url(#p75beb87e9b)" style="fill: none; stroke: #000000; stroke-width: 2; stroke-linecap: round"/>
   </g>
   <g id="line2d_3">
    <path d="M 22.68 47.958884 
L 49.68 47.958884 
L 76.68 47.958884 
" clip-path="url(#p75beb87e9b)" style="fill: none; stroke: #000000; stroke-width: 2; stroke-linecap: round"/>
   </g>
   <g id="line2d_4">
    <path d="M 76.68 47.958884 
L 112.68 47.958884 
L 115.68 38.958884 
L 121.68 56.958884 
L 127.68 38.958884 
L 133.68 56.958884 
L 139.68 38.958884 
L 145.68 56.958884 
L 148.68 47.958884 
L 184.68 47.958884 
" clip-path="url(#p75beb87e9b)" style="fill: none; stroke: #000000; stroke-width: 2; stroke-linecap: round"/>
   </g>
   <g id="line2d_5">
    <path d="M 184.68 47.958884 
L 220.68 47.958884 
L 220.81407 44.994698 
L 221.22176 42.003778 
L 221.894001 39.236968 
L 222.799538 36.926316 
L 223.324567 36.004576 
L 223.887547 35.265613 
L 224.479767 34.725003 
L 225.091902 34.394141 
L 225.714207 34.28 
L 226.33672 34.384987 
L 226.949478 34.706888 
L 227.542723 35.23892 
L 228.107106 35.969866 
L 228.633888 36.884321 
L 229.543825 39.183193 
L 230.221342 41.942734 
L 230.63474 44.931505 
L 230.774472 47.898842 
L 230.653942 50.595879 
L 230.308382 52.79642 
L 229.791898 54.315908 
L 229.490537 54.777873 
L 229.172928 55.026908 
L 228.848923 55.057763 
L 228.528509 54.869788 
L 228.221597 54.466945 
L 227.686292 53.05497 
L 227.313029 50.940259 
L 227.158236 48.300169 
L 227.260019 45.35612 
L 227.634963 42.355026 
L 228.276748 39.548584 
L 229.156671 37.172165 
L 229.671402 36.209391 
L 230.226057 35.425076 
L 230.812102 34.835753 
L 231.420342 34.453843 
L 232.041113 34.287397 
L 232.664487 34.339922 
L 233.280482 34.610312 
L 233.879271 35.092867 
L 234.45139 35.777416 
L 234.987935 36.64953 
L 235.922621 38.879355 
L 236.63006 41.595331 
L 237.076046 44.569673 
L 237.248297 47.552928 
L 237.15749 50.294894 
L 236.836365 52.565607 
L 236.336977 54.174626 
L 236.040936 54.686316 
L 235.726332 54.987005 
L 235.402952 55.070355 
L 235.080768 54.93461 
L 234.769731 54.582631 
L 234.479551 54.021836 
L 233.998228 52.325237 
L 233.702289 49.987103 
L 233.641678 47.203529 
L 233.846602 44.207971 
L 234.324998 41.251661 
L 235.061866 38.582539 
L 236.020531 36.424462 
L 236.566371 35.595746 
L 237.145713 34.958424 
L 237.749502 34.52593 
L 238.368169 34.307379 
L 238.991831 34.307379 
L 239.610498 34.52593 
L 240.214287 34.958424 
L 240.793629 35.595746 
L 241.339469 36.424462 
L 241.84346 37.427105 
L 242.697065 39.866412 
L 243.307979 42.709087 
L 243.650087 45.716719 
L 243.719821 48.637063 
L 243.536457 51.225193 
L 243.140496 53.264048 
L 242.590269 54.582631 
L 242.279232 54.93461 
L 241.957048 55.070355 
L 241.633668 54.987005 
L 241.319064 54.686316 
L 241.023023 54.174626 
L 240.523635 52.565607 
L 240.20251 50.294894 
L 240.111703 47.552928 
L 240.283954 44.569673 
L 240.72994 41.595331 
L 241.437379 38.879355 
L 242.372065 36.64953 
L 242.90861 35.777416 
L 243.480729 35.092867 
L 244.079518 34.610312 
L 244.695513 34.339922 
L 245.318887 34.287397 
L 245.939658 34.453843 
L 246.547898 34.835753 
L 247.133943 35.425076 
L 247.688598 36.209391 
L 248.203329 37.172165 
L 249.083252 39.548584 
L 249.725037 42.355026 
L 250.099981 45.35612 
L 250.201764 48.300169 
L 250.046971 50.940259 
L 249.673708 53.05497 
L 249.138403 54.466945 
L 248.831491 54.869788 
L 248.511077 55.057763 
L 248.187072 55.026908 
L 247.869463 54.777873 
L 247.568102 54.315908 
L 247.051618 52.79642 
L 246.706058 50.595879 
L 246.585528 47.898842 
L 246.72526 44.931505 
L 247.138658 41.942734 
L 247.816175 39.183193 
L 248.726112 36.884321 
L 249.252894 35.969866 
L 249.817277 35.23892 
L 250.410522 34.706888 
L 251.02328 34.384987 
L 251.645793 34.28 
L 252.268098 34.394141 
L 252.880233 34.725003 
L 253.472453 35.265613 
L 254.035433 36.004576 
L 254.560462 36.926316 
L 255.465999 39.236968 
L 256.13824 42.003778 
L 256.54593 44.994698 
L 256.68 47.958884 
L 292.68 47.958884 
L 292.68 47.958884 
" clip-path="url(#p75beb87e9b)" style="fill: none; stroke: #000000; stroke-width: 2; stroke-linecap: round"/>
   </g>
   <g id="line2d_6">
    <path d="M 292.68 47.958884 
L 319.68 47.958884 
L 346.68 47.958884 
" clip-path="url(#p75beb87e9b)" style="fill: none; stroke: #000000; stroke-width: 2; stroke-linecap: round"/>
   </g>
   <g id="line2d_7">
    <path d="M 346.68 47.958884 
L 346.68 98.718884 
M 355.68 98.718884 
L 337.68 98.718884 
M 355.68 105.198884 
L 337.68 105.198884 
M 346.68 105.198884 
L 346.68 155.958884 
" clip-path="url(#p75beb87e9b)" style="fill: none; stroke: #000000; stroke-width: 2; stroke-linecap: round"/>
   </g>
   <g id="line2d_8">
    <path d="M 346.68 155.958884 
L 184.68 155.958884 
L 22.68 155.958884 
" clip-path="url(#p75beb87e9b)" style="fill: none; stroke: #000000; stroke-width: 2; stroke-linecap: round"/>
   </g>
   <g id="line2d_9">
    <path d="M 22.68 155.958884 
L 22.68 170.358884 
L 13.68 170.358884 
L 31.68 170.358884 
M 16.38 174.678884 
L 28.98 174.678884 
M 20.88 178.998884 
L 24.48 178.998884 
" clip-path="url(#p75beb87e9b)" style="fill: none; stroke: #000000; stroke-width: 2; stroke-linecap: round"/>
   </g>
   <g id="line2d_10">
    <path d="M 22.68 155.958884 
" clip-path="url(#p75beb87e9b)" style="fill: none; stroke: #000000; stroke-width: 2; stroke-linecap: round"/>
   </g>
   <g id="text_1">
    <!-- $V_s$ -->
    <g transform="translate(15.66 169.436853) scale(0.13 -0.13)">
     <defs>
      <path id="DejaVuSans-Oblique-56" d="M 1319 0 
L 500 4666 
L 1119 4666 
L 1797 653 
L 4063 4666 
L 4750 4666 
L 2053 0 
L 1319 0 
z
" transform="scale(0.015625)"/>
      <path id="DejaVuSans-Oblique-73" d="M 3200 3397 
L 3091 2853 
Q 2863 2978 2609 3040 
Q 2356 3103 2088 3103 
Q 1634 3103 1373 2948 
Q 1113 2794 1113 2528 
Q 1113 2219 1719 2053 
Q 1766 2041 1788 2034 
L 1972 1978 
Q 2547 1819 2739 1644 
Q 2931 1469 2931 1166 
Q 2931 609 2489 259 
Q 2047 -91 1331 -91 
Q 1053 -91 747 -37 
Q 441 16 72 128 
L 184 722 
Q 500 559 806 475 
Q 1113 391 1394 391 
Q 1816 391 2080 572 
Q 2344 753 2344 1031 
Q 2344 1331 1650 1516 
L 1591 1531 
L 1394 1581 
Q 956 1697 753 1886 
Q 550 2075 550 2369 
Q 550 2928 970 3256 
Q 1391 3584 2113 3584 
Q 2397 3584 2667 3537 
Q 2938 3491 3200 3397 
z
" transform="scale(0.015625)"/>
     </defs>
     <use xlink:href="#DejaVuSans-Oblique-56" transform="translate(0 0.09375)"/>
     <use xlink:href="#DejaVuSans-Oblique-73" transform="translate(68.408203 -16.3125) scale(0.7)"/>
    </g>
    <!-- 1 V -->
    <g transform="translate(12.032187 182.018416) scale(0.13 -0.13)">
     <defs>
      <path id="DejaVuSans-31" d="M 794 531 
L 1825 531 
L 1825 4091 
L 703 3866 
L 703 4441 
L 1819 4666 
L 2450 4666 
L 2450 531 
L 3481 531 
L 3481 0 
L 794 0 
L 794 531 
z
" transform="scale(0.015625)"/>
      <path id="DejaVuSans-20" transform="scale(0.015625)"/>
      <path id="DejaVuSans-56" d="M 1831 0 
L 50 4666 
L 709 4666 
L 2188 738 
L 3669 4666 
L 4325 4666 
L 2547 0 
L 1831 0 
z
" transform="scale(0.015625)"/>
     </defs>
     <use xlink:href="#DejaVuSans-31"/>
     <use xlink:href="#DejaVuSans-20" transform="translate(63.623047 0)"/>
     <use xlink:href="#DejaVuSans-56" transform="translate(95.410156 0)"/>
    </g>
   </g>
   <g id="text_2">
    <!-- $R$ -->
    <g transform="translate(126.13 20.073728) scale(0.13 -0.13)">
     <defs>
      <path id="DejaVuSans-Oblique-52" d="M 1613 4147 
L 1294 2491 
L 2106 2491 
Q 2584 2491 2879 2755 
Q 3175 3019 3175 3444 
Q 3175 3784 2976 3965 
Q 2778 4147 2406 4147 
L 1613 4147 
z
M 2772 2241 
Q 2972 2194 3105 2009 
Q 3238 1825 3413 1275 
L 3809 0 
L 3144 0 
L 2778 1197 
Q 2638 1659 2453 1815 
Q 2269 1972 1888 1972 
L 1191 1972 
L 806 0 
L 172 0 
L 1081 4666 
L 2503 4666 
Q 3150 4666 3495 4373 
Q 3841 4081 3841 3531 
Q 3841 3044 3547 2687 
Q 3253 2331 2772 2241 
z
" transform="scale(0.015625)"/>
     </defs>
     <use xlink:href="#DejaVuSans-Oblique-52" transform="translate(0 0.09375)"/>
    </g>
    <!-- 10 Ω -->
    <g transform="translate(115.375547 32.655291) scale(0.13 -0.13)">
     <defs>
      <path id="DejaVuSans-30" d="M 2034 4250 
Q 1547 4250 1301 3770 
Q 1056 3291 1056 2328 
Q 1056 1369 1301 889 
Q 1547 409 2034 409 
Q 2525 409 2770 889 
Q 3016 1369 3016 2328 
Q 3016 3291 2770 3770 
Q 2525 4250 2034 4250 
z
M 2034 4750 
Q 2819 4750 3233 4129 
Q 3647 3509 3647 2328 
Q 3647 1150 3233 529 
Q 2819 -91 2034 -91 
Q 1250 -91 836 529 
Q 422 1150 422 2328 
Q 422 3509 836 4129 
Q 1250 4750 2034 4750 
z
" transform="scale(0.015625)"/>
      <path id="DejaVuSans-3a9" d="M 4647 556 
L 4647 0 
L 2772 0 
L 2772 556 
Q 3325 859 3634 1378 
Q 3944 1897 3944 2528 
Q 3944 3278 3531 3731 
Q 3119 4184 2444 4184 
Q 1769 4184 1355 3729 
Q 941 3275 941 2528 
Q 941 1897 1250 1378 
Q 1563 859 2119 556 
L 2119 0 
L 244 0 
L 244 556 
L 1241 556 
Q 747 991 519 1456 
Q 294 1922 294 2497 
Q 294 3491 894 4106 
Q 1491 4722 2444 4722 
Q 3391 4722 3994 4106 
Q 4594 3494 4594 2528 
Q 4594 1922 4372 1459 
Q 4150 997 3647 556 
L 4647 556 
z
" transform="scale(0.015625)"/>
     </defs>
     <use xlink:href="#DejaVuSans-31"/>
     <use xlink:href="#DejaVuSans-30" transform="translate(63.623047 0)"/>
     <use xlink:href="#DejaVuSans-20" transform="translate(127.246094 0)"/>
     <use xlink:href="#DejaVuSans-3a9" transform="translate(159.033203 0)"/>
    </g>
   </g>
   <g id="text_3">
    <!-- $L$ -->
    <g transform="translate(235.04 15.394844) scale(0.13 -0.13)">
     <defs>
      <path id="DejaVuSans-Oblique-4c" d="M 1075 4666 
L 1709 4666 
L 909 525 
L 3181 525 
L 3078 0 
L 172 0 
L 1075 4666 
z
" transform="scale(0.015625)"/>
     </defs>
     <use xlink:href="#DejaVuSans-Oblique-4c" transform="translate(0 0.09375)"/>
    </g>
    <!-- 1 µH -->
    <g transform="translate(223.454766 27.976406) scale(0.13 -0.13)">
     <defs>
      <path id="DejaVuSans-b5" d="M 544 -1331 
L 544 3500 
L 1119 3500 
L 1119 1325 
Q 1119 872 1334 640 
Q 1550 409 1972 409 
Q 2434 409 2667 671 
Q 2900 934 2900 1459 
L 2900 3500 
L 3475 3500 
L 3475 806 
Q 3475 619 3529 530 
Q 3584 441 3700 441 
Q 3728 441 3778 458 
Q 3828 475 3916 513 
L 3916 50 
Q 3788 -22 3673 -56 
Q 3559 -91 3450 -91 
Q 3234 -91 3106 31 
Q 2978 153 2931 403 
Q 2775 156 2548 32 
Q 2322 -91 2016 -91 
Q 1697 -91 1473 31 
Q 1250 153 1119 397 
L 1119 -1331 
L 544 -1331 
z
" transform="scale(0.015625)"/>
      <path id="DejaVuSans-48" d="M 628 4666 
L 1259 4666 
L 1259 2753 
L 3553 2753 
L 3553 4666 
L 4184 4666 
L 4184 0 
L 3553 0 
L 3553 2222 
L 1259 2222 
L 1259 0 
L 628 0 
L 628 4666 
z
" transform="scale(0.015625)"/>
     </defs>
     <use xlink:href="#DejaVuSans-31"/>
     <use xlink:href="#DejaVuSans-20" transform="translate(63.623047 0)"/>
     <use xlink:href="#DejaVuSans-b5" transform="translate(95.410156 0)"/>
     <use xlink:href="#DejaVuSans-48" transform="translate(159.033203 0)"/>
    </g>
   </g>
   <g id="text_4">
    <!-- $C$ -->
    <g transform="translate(342.13 29.073728) scale(0.13 -0.13)">
     <defs>
      <path id="DejaVuSans-Oblique-43" d="M 4447 4306 
L 4319 3641 
Q 4019 3944 3683 4091 
Q 3347 4238 2956 4238 
Q 2422 4238 2017 3981 
Q 1613 3725 1319 3200 
Q 1131 2863 1032 2486 
Q 934 2109 934 1728 
Q 934 1091 1264 756 
Q 1594 422 2222 422 
Q 2656 422 3056 561 
Q 3456 700 3834 978 
L 3688 231 
Q 3316 72 2936 -9 
Q 2556 -91 2175 -91 
Q 1278 -91 773 396 
Q 269 884 269 1753 
Q 269 2309 461 2846 
Q 653 3384 1013 3828 
Q 1394 4300 1883 4525 
Q 2372 4750 3022 4750 
Q 3422 4750 3780 4639 
Q 4138 4528 4447 4306 
z
" transform="scale(0.015625)"/>
     </defs>
     <use xlink:href="#DejaVuSans-Oblique-43" transform="translate(0 0.78125)"/>
    </g>
    <!-- 1 nF -->
    <g transform="translate(332.620703 41.655291) scale(0.13 -0.13)">
     <defs>
      <path id="DejaVuSans-6e" d="M 3513 2113 
L 3513 0 
L 2938 0 
L 2938 2094 
Q 2938 2591 2744 2837 
Q 2550 3084 2163 3084 
Q 1697 3084 1428 2787 
Q 1159 2491 1159 1978 
L 1159 0 
L 581 0 
L 581 3500 
L 1159 3500 
L 1159 2956 
Q 1366 3272 1645 3428 
Q 1925 3584 2291 3584 
Q 2894 3584 3203 3211 
Q 3513 2838 3513 2113 
z
" transform="scale(0.015625)"/>
      <path id="DejaVuSans-46" d="M 628 4666 
L 3309 4666 
L 3309 4134 
L 1259 4134 
L 1259 2759 
L 3109 2759 
L 3109 2228 
L 1259 2228 
L 1259 0 
L 628 0 
L 628 4666 
z
" transform="scale(0.015625)"/>
     </defs>
     <use xlink:href="#DejaVuSans-31"/>
     <use xlink:href="#DejaVuSans-20" transform="translate(63.623047 0)"/>
     <use xlink:href="#DejaVuSans-6e" transform="translate(95.410156 0)"/>
     <use xlink:href="#DejaVuSans-46" transform="translate(158.789062 0)"/>
    </g>
   </g>
   <g id="text_5">
    <!-- $V_\mathrm{out}$ -->
    <g transform="translate(309.9 105.546072) scale(0.13 -0.13)">
     <defs>
      <path id="DejaVuSans-6f" d="M 1959 3097 
Q 1497 3097 1228 2736 
Q 959 2375 959 1747 
Q 959 1119 1226 758 
Q 1494 397 1959 397 
Q 2419 397 2687 759 
Q 2956 1122 2956 1747 
Q 2956 2369 2687 2733 
Q 2419 3097 1959 3097 
z
M 1959 3584 
Q 2709 3584 3137 3096 
Q 3566 2609 3566 1747 
Q 3566 888 3137 398 
Q 2709 -91 1959 -91 
Q 1206 -91 779 398 
Q 353 888 353 1747 
Q 353 2609 779 3096 
Q 1206 3584 1959 3584 
z
" transform="scale(0.015625)"/>
      <path id="DejaVuSans-75" d="M 544 1381 
L 544 3500 
L 1119 3500 
L 1119 1403 
Q 1119 906 1312 657 
Q 1506 409 1894 409 
Q 2359 409 2629 706 
Q 2900 1003 2900 1516 
L 2900 3500 
L 3475 3500 
L 3475 0 
L 2900 0 
L 2900 538 
Q 2691 219 2414 64 
Q 2138 -91 1772 -91 
Q 1169 -91 856 284 
Q 544 659 544 1381 
z
M 1991 3584 
L 1991 3584 
z
" transform="scale(0.015625)"/>
      <path id="DejaVuSans-74" d="M 1172 4494 
L 1172 3500 
L 2356 3500 
L 2356 3053 
L 1172 3053 
L 1172 1153 
Q 1172 725 1289 603 
Q 1406 481 1766 481 
L 2356 481 
L 2356 0 
L 1766 0 
Q 1100 0 847 248 
Q 594 497 594 1153 
L 594 3053 
L 172 3053 
L 172 3500 
L 594 3500 
L 594 4494 
L 1172 4494 
z
" transform="scale(0.015625)"/>
     </defs>
     <use xlink:href="#DejaVuSans-Oblique-56" transform="translate(0 0.09375)"/>
     <use xlink:href="#DejaVuSans-6f" transform="translate(68.408203 -16.3125) scale(0.7)"/>
     <use xlink:href="#DejaVuSans-75" transform="translate(111.235352 -16.3125) scale(0.7)"/>
     <use xlink:href="#DejaVuSans-74" transform="translate(155.600586 -16.3125) scale(0.7)"/>
    </g>
   </g>
   <g id="patch_3">
    <path d="M 346.68 50.658884 
C 347.396048 50.658884 348.082866 50.374395 348.589188 49.868073 
C 349.095511 49.36175 349.38 48.674933 349.38 47.958884 
C 349.38 47.242836 349.095511 46.556019 348.589188 46.049696 
C 348.082866 45.543374 347.396048 45.258884 346.68 45.258884 
C 345.963952 45.258884 345.277134 45.543374 344.770812 46.049696 
C 344.264489 46.556019 343.98 47.242836 343.98 47.958884 
C 343.98 48.674933 344.264489 49.36175 344.770812 49.868073 
C 345.277134 50.374395 345.963952 50.658884 346.68 50.658884 
z
" clip-path="url(#p75beb87e9b)" style="fill: #ffffff; stroke: #000000; stroke-width: 2; stroke-linejoin: miter"/>
   </g>
   <g id="text_6">
    <!-- $V_\mathrm{out}$ -->
    <g transform="translate(352.98 51.546072) scale(0.13 -0.13)">
     <use xlink:href="#DejaVuSans-Oblique-56" transform="translate(0 0.09375)"/>
     <use xlink:href="#DejaVuSans-6f" transform="translate(68.408203 -16.3125) scale(0.7)"/>
     <use xlink:href="#DejaVuSans-75" transform="translate(111.235352 -16.3125) scale(0.7)"/>
     <use xlink:href="#DejaVuSans-74" transform="translate(155.600586 -16.3125) scale(0.7)"/>
    </g>
   </g>
  </g>
 </g>
 <defs>
  <clipPath id="p75beb87e9b">
   <rect x="0" y="0" width="449.388" height="190.238884"/>
  </clipPath>
 </defs>
</svg>
