<?xml version="1.0" standalone="no"?>
<!DOCTYPE svg PUBLIC "-//W3C//DTD SVG 20010904//EN"
 "http://www.w3.org/TR/2001/REC-SVG-20010904/DTD/svg10.dtd">
<svg version="1.0" xmlns="http://www.w3.org/2000/svg"
 width="1920.000000pt" height="2208.000000pt" viewBox="0 0 1920.000000 2208.000000"
 preserveAspectRatio="xMidYMid meet">
<metadata>
Created by potrace 1.16, written by Peter Selinger 2001-2019
</metadata>
<g transform="translate(0.000000,2208.000000) scale(0.100000,-0.100000)"
fill="white" stroke="none">
<path d="M8418 21238 c-2 -123 -4 -549 -6 -947 -2 -439 -6 -731 -12 -741 -8
-15 -27 -20 -92 -24 -46 -3 -1622 -8 -3503 -11 -1881 -3 -3481 -6 -3555 -8
-123 -2 -138 -4 -174 -26 -67 -42 -84 -123 -45 -226 17 -47 116 -217 275 -475
57 -91 175 -293 215 -365 18 -33 40 -71 50 -85 9 -14 61 -101 114 -195 54 -93
137 -232 185 -310 48 -77 111 -183 142 -235 63 -108 863 -1436 1048 -1740 15
-25 58 -94 95 -155 37 -60 83 -137 103 -170 19 -33 92 -157 162 -275 70 -118
153 -262 185 -320 32 -58 71 -124 87 -148 40 -58 102 -102 145 -102 29 0 245
41 847 160 124 25 136 25 136 1 0 -22 -13 -36 -335 -387 -218 -236 -304 -331
-636 -693 -171 -187 -428 -481 -476 -546 -43 -57 -45 -63 -41 -113 8 -88 76
-142 179 -142 69 0 745 138 1204 245 342 80 815 176 849 173 l29 -3 -44 -55
c-50 -65 -145 -170 -444 -496 -332 -360 -688 -755 -799 -884 -54 -63 -111
-128 -125 -145 -53 -60 -61 -78 -61 -138 0 -53 3 -61 38 -98 64 -68 90 -69
402 -5 351 71 426 87 500 106 41 10 134 31 205 45 72 15 229 49 350 77 121 27
270 60 330 73 61 13 184 40 274 59 90 20 176 36 192 36 29 0 29 -1 15 -27 -8
-16 -56 -74 -108 -130 -271 -297 -510 -557 -582 -633 -153 -161 -572 -622
-721 -793 -99 -114 -113 -144 -101 -212 8 -43 74 -102 125 -111 23 -5 90 4
196 24 88 18 237 46 330 62 94 17 213 39 265 50 89 18 134 28 358 80 111 25
174 26 194 3 8 -10 46 -76 85 -148 104 -193 208 -375 468 -820 32 -55 106
-183 165 -285 59 -102 154 -264 212 -360 58 -96 128 -218 157 -270 29 -52 65
-115 81 -140 15 -25 53 -90 85 -145 32 -55 79 -136 105 -180 25 -44 73 -125
105 -180 32 -55 68 -116 80 -135 12 -19 46 -78 77 -130 105 -181 261 -445 299
-505 20 -33 65 -109 100 -170 34 -60 81 -139 103 -175 56 -90 60 -96 102 -170
21 -36 82 -141 137 -235 55 -93 115 -195 132 -225 73 -126 223 -382 320 -545
76 -127 167 -267 199 -305 62 -74 150 -93 223 -47 65 41 96 89 378 582 97 171
203 353 235 405 31 52 69 118 85 145 15 28 49 86 75 130 163 272 260 436 260
440 0 2 48 84 106 182 59 98 160 270 227 383 165 283 206 353 217 370 18 30
64 107 115 195 237 406 333 570 371 633 24 40 44 75 44 78 0 3 30 53 66 112
37 59 73 117 80 129 8 12 26 44 40 70 26 47 155 266 239 408 23 39 52 90 65
115 64 126 93 136 231 81 181 -73 289 -99 465 -111 216 -15 329 5 519 95 217
103 383 296 440 510 19 69 45 292 45 381 l0 62 77 33 c120 52 219 123 323 228
110 113 165 203 210 351 39 125 51 209 51 353 l1 119 36 15 c242 97 427 264
524 470 77 165 98 259 107 478 l6 160 85 45 c117 62 202 125 288 213 120 122
196 247 245 403 29 93 52 274 44 351 -8 79 -3 87 73 121 258 114 456 347 519
612 17 69 19 106 15 226 -4 122 -9 160 -35 245 -78 263 -174 392 -496 667 -60
52 -61 53 -51 85 6 18 65 124 131 237 67 113 137 235 158 272 20 37 46 80 56
95 11 15 41 66 68 113 26 47 126 218 223 380 96 162 219 372 275 465 55 94
112 190 127 215 28 45 282 478 388 660 61 105 227 384 455 764 83 137 168 288
190 335 68 144 62 232 -21 285 l-37 24 -3605 5 c-1983 3 -3621 8 -3640 12 -19
3 -41 14 -47 23 -10 12 -13 207 -15 886 -1 479 -2 878 -4 886 -1 8 -2 43 -3
78 l-1 62 -356 0 -356 0 3 -2065 3 -2065 358 0 358 0 0 934 c0 735 3 936 13
943 6 6 38 13 70 17 32 3 1560 6 3395 6 2864 -1 3379 -3 3530 -20 9 -1 -8 -33
-81 -156 -46 -76 -137 -229 -202 -339 -65 -110 -133 -225 -150 -255 -45 -75
-261 -442 -300 -510 -17 -30 -92 -156 -165 -280 -214 -361 -541 -916 -790
-1340 -37 -63 -122 -209 -190 -325 -68 -115 -142 -241 -164 -278 -29 -50 -41
-83 -43 -120 -5 -68 15 -101 104 -163 109 -77 222 -175 303 -261 129 -137 236
-345 247 -482 7 -86 -20 -230 -55 -296 -41 -75 -215 -246 -285 -280 -36 -17
-62 -24 -67 -19 -5 5 -30 51 -54 102 -122 249 -313 461 -573 635 -289 194
-615 307 -893 310 -174 2 -270 -39 -345 -147 -35 -51 -40 -66 -43 -125 -11
-195 94 -400 312 -609 133 -128 391 -289 601 -375 186 -77 440 -138 657 -160
l122 -12 9 -39 c11 -45 -10 -172 -43 -260 -22 -59 -82 -155 -139 -225 -62 -76
-263 -215 -281 -194 -4 4 -22 42 -40 83 -71 161 -270 415 -421 536 -92 74
-278 198 -356 238 -298 149 -579 220 -782 196 -108 -12 -176 -45 -235 -112
-58 -66 -70 -113 -63 -236 8 -160 59 -261 223 -448 160 -182 321 -304 563
-423 242 -120 483 -184 775 -207 77 -6 94 -11 114 -31 23 -23 24 -30 19 -101
-6 -74 -50 -229 -83 -295 -61 -119 -182 -238 -301 -296 -36 -18 -66 -31 -68
-29 -2 2 -23 46 -48 98 -86 182 -230 365 -403 509 -319 266 -683 436 -1015
473 -138 15 -206 -1 -310 -74 -101 -71 -112 -99 -107 -273 l3 -133 42 -82 c62
-118 125 -203 228 -306 99 -99 327 -267 459 -339 194 -105 496 -197 726 -220
69 -7 178 -30 188 -39 14 -14 13 -119 -2 -182 -36 -160 -113 -303 -208 -389
-72 -64 -173 -127 -197 -123 -9 2 -36 43 -61 93 -107 211 -287 425 -485 574
-185 139 -337 224 -540 300 -228 84 -502 128 -610 96 -63 -18 -144 -79 -183
-137 -25 -39 -27 -50 -30 -162 -3 -104 -1 -130 18 -186 25 -77 74 -166 130
-241 53 -72 198 -219 280 -284 180 -146 539 -320 760 -368 68 -16 246 -38 338
-44 56 -3 109 -11 116 -17 49 -38 -5 -304 -89 -437 -62 -99 -232 -214 -355
-240 -68 -14 -303 -5 -375 15 -145 41 -304 106 -402 167 -48 30 -176 39 -203
14 -22 -20 -48 -62 -255 -410 -81 -137 -175 -295 -208 -350 -33 -55 -86 -145
-117 -200 -86 -151 -261 -451 -365 -625 -50 -85 -107 -182 -125 -215 -18 -33
-48 -82 -65 -110 -17 -27 -63 -104 -101 -170 -39 -66 -115 -194 -169 -285
-101 -170 -151 -255 -290 -495 -45 -77 -135 -230 -199 -340 -132 -222 -173
-292 -338 -575 -63 -107 -157 -267 -209 -355 -52 -88 -110 -191 -129 -227 -19
-37 -41 -70 -49 -73 -23 -9 -51 26 -126 155 -114 196 -338 578 -490 835 -202
341 -272 459 -325 550 -76 130 -302 511 -381 640 -40 66 -120 203 -179 305
-59 102 -153 264 -210 360 -57 96 -146 249 -198 340 -237 410 -306 528 -419
720 -231 392 -381 656 -486 850 -166 308 -182 329 -261 337 -44 5 -201 -23
-461 -82 -479 -108 -485 -109 -485 -75 0 12 45 69 107 138 137 149 176 192
249 272 81 90 372 407 469 510 44 47 98 106 120 130 22 25 124 135 227 245
202 218 320 352 338 385 6 11 12 43 12 71 2 61 -20 95 -83 127 -36 19 -53 22
-94 17 -66 -8 -730 -141 -1020 -204 -126 -27 -300 -64 -385 -81 -85 -17 -245
-52 -355 -76 -384 -87 -378 -86 -386 -73 -4 7 -2 20 4 29 31 43 482 539 673
740 45 47 103 110 130 141 27 30 141 157 254 280 240 263 334 374 385 449 34
50 37 60 33 110 -5 65 -27 102 -77 126 -40 19 -83 15 -281 -27 -597 -126 -816
-173 -950 -204 -85 -20 -227 -51 -315 -70 -88 -20 -178 -39 -200 -45 -198 -48
-450 -99 -457 -92 -4 4 3 23 16 41 25 33 39 49 176 196 119 128 431 471 641
705 106 118 256 283 334 365 186 200 303 340 327 394 46 100 -23 201 -137 201
-39 0 -674 -119 -960 -180 -49 -10 -143 -31 -209 -45 -65 -14 -127 -25 -137
-25 -43 0 -16 -42 -553 850 -392 650 -953 1585 -1071 1785 -62 105 -172 291
-245 415 -73 124 -187 315 -253 425 -65 110 -153 259 -194 330 -42 72 -109
187 -150 258 -41 70 -73 134 -70 142 5 11 35 15 134 18 70 2 1264 4 2653 6
1389 1 2856 4 3260 5 404 2 775 1 824 -3 89 -6 90 -6 98 -36 5 -16 10 -441 12
-943 2 -772 5 -915 17 -923 8 -6 80 -8 169 -5 85 3 246 6 358 6 l202 0 -2
1838 c-1 1010 -4 1939 -6 2065 l-3 227 -364 0 -364 0 -3 -222z m6062 -6412
c357 -76 597 -215 844 -492 81 -91 190 -259 179 -277 -16 -25 -299 33 -507
104 -175 60 -404 195 -553 326 -122 108 -233 266 -233 336 l0 27 78 0 c43 0
128 -11 192 -24z m-748 -1077 c220 -35 470 -143 656 -286 124 -95 238 -200
288 -264 51 -66 144 -226 144 -246 0 -25 -146 -6 -329 42 -371 99 -725 342
-878 602 -28 49 -56 140 -47 154 7 12 80 11 166 -2z m-582 -1123 c168 -39 284
-84 420 -161 132 -74 208 -131 318 -239 147 -142 260 -294 287 -385 7 -23 6
-24 -36 -17 -223 33 -466 109 -654 203 -305 152 -574 424 -575 580 0 24 5 43
13 46 29 12 91 5 227 -27z m-707 -1081 c174 -31 397 -123 561 -232 106 -71
294 -245 376 -348 61 -78 134 -211 120 -220 -23 -14 -324 43 -460 87 -190 62
-423 196 -556 321 -81 74 -176 192 -208 256 -29 55 -49 128 -41 141 9 15 108
12 208 -5z"/>
<path d="M4250 3949 c-118 -20 -217 -92 -271 -196 -33 -66 -35 -214 -3 -283
30 -65 96 -127 172 -163 56 -26 82 -32 158 -35 141 -6 232 27 316 114 66 70
83 116 83 224 0 85 -3 101 -28 148 -35 67 -105 138 -160 162 -41 18 -153 41
-192 39 -11 -1 -45 -5 -75 -10z"/>
<path d="M12262 2235 l3 -1545 303 0 302 0 0 1545 0 1545 -305 0 -306 0 3
-1545z"/>
<path d="M2550 2919 c-348 -21 -681 -186 -863 -428 -109 -143 -165 -261 -209
-436 -20 -78 -23 -115 -22 -275 0 -160 3 -196 22 -268 117 -434 409 -719 838
-818 145 -33 382 -44 528 -24 261 35 502 156 650 324 63 72 126 162 126 180 0
6 -31 28 -68 50 -37 21 -141 81 -231 133 -141 82 -165 93 -173 79 -23 -41
-112 -138 -150 -164 -166 -113 -384 -139 -574 -67 -180 68 -312 232 -350 435
-19 101 -14 255 12 340 47 160 154 290 297 360 94 46 157 60 271 60 178 0 289
-49 421 -184 l90 -92 130 78 c72 43 174 103 228 134 53 31 97 61 97 68 0 20
-121 178 -179 234 -172 164 -433 268 -716 284 -33 2 -112 1 -175 -3z"/>
<path d="M6480 2919 c-202 -17 -390 -103 -533 -241 l-75 -73 -6 29 c-3 15 -6
82 -6 147 l0 119 -287 -2 -288 -3 -3 -1102 -2 -1103 300 0 300 0 0 583 c1 456
4 599 15 661 35 200 176 357 379 422 68 22 104 27 221 31 l140 3 3 265 2 265
-22 1 c-13 0 -32 1 -43 3 -11 1 -54 -2 -95 -5z"/>
<path d="M14290 2923 c-215 -12 -489 -81 -653 -163 -82 -42 -177 -100 -177
-108 0 -9 190 -361 211 -393 l16 -24 40 27 c120 79 282 140 438 163 308 46
533 -24 623 -193 27 -51 61 -161 62 -199 0 -10 -45 -13 -192 -13 -294 -1 -613
-17 -702 -36 -280 -58 -466 -205 -551 -434 -25 -66 -28 -89 -29 -195 -1 -138
12 -199 61 -303 64 -136 220 -270 383 -330 127 -46 205 -57 405 -57 175 1 198
3 290 28 126 35 229 93 312 176 l63 64 0 -122 0 -121 280 0 280 0 0 709 c0
767 -1 785 -56 953 -97 295 -363 501 -714 553 -98 14 -292 23 -390 18z m558
-1405 c-3 -98 -8 -121 -32 -175 -45 -98 -151 -188 -269 -227 -172 -57 -372
-33 -494 60 -45 34 -75 96 -81 170 -8 105 30 181 116 231 76 45 131 51 461 52
l303 1 -4 -112z"/>
<path d="M7798 2905 c-199 -40 -419 -135 -553 -240 -190 -148 -318 -350 -386
-611 -21 -77 -24 -112 -24 -269 0 -178 5 -220 42 -340 47 -152 135 -302 253
-428 156 -167 354 -274 610 -332 100 -23 399 -32 511 -16 246 35 444 129 613
292 74 70 176 203 165 213 -7 6 -219 130 -319 186 -52 29 -108 62 -124 73 -25
18 -29 18 -37 4 -21 -37 -91 -117 -131 -149 -187 -152 -503 -167 -704 -33
-110 72 -192 184 -240 325 -15 44 -19 84 -18 205 0 136 2 156 26 217 75 198
224 332 423 383 126 32 296 12 421 -50 56 -27 90 -55 157 -125 l86 -90 113 69
c62 38 168 101 236 141 l122 72 -40 57 c-61 87 -163 194 -238 249 -125 93
-335 178 -497 202 -99 14 -386 11 -467 -5z"/>
<path d="M4030 1795 l0 -1105 295 0 295 0 0 1105 0 1105 -295 0 -295 0 0
-1105z"/>
<path d="M9410 2893 c0 -5 0 -316 0 -692 0 -700 3 -751 42 -906 71 -283 256
-494 508 -580 227 -77 522 -73 741 10 81 31 228 125 279 178 19 20 43 37 53
37 15 0 17 -13 17 -125 l0 -125 285 0 285 0 0 1105 0 1105 -307 0 -308 0 3
-572 c2 -393 0 -603 -8 -668 -40 -322 -235 -493 -545 -477 -141 7 -201 31
-286 116 -68 69 -104 130 -135 236 -16 54 -18 124 -21 713 l-4 652 -300 0
c-164 0 -299 -3 -299 -7z"/>
<path d="M15840 2890 c0 -6 55 -84 123 -173 174 -233 329 -442 426 -576 109
-151 187 -257 224 -304 l29 -39 -25 -26 c-13 -15 -105 -133 -203 -262 -98
-129 -239 -314 -314 -410 -154 -198 -292 -379 -303 -398 -7 -9 64 -12 341 -12
l349 0 28 43 c16 23 113 155 216 294 104 138 203 274 221 302 18 27 35 50 38
50 3 1 62 -76 130 -170 69 -94 170 -233 225 -308 55 -75 111 -154 125 -174
l25 -37 278 0 c196 0 277 3 277 11 0 24 -62 137 -104 191 -71 89 -217 187
-306 204 -21 5 -30 12 -30 25 0 11 7 19 15 19 20 0 135 47 159 65 18 14 7 31
-205 311 -123 164 -225 300 -227 304 -1 3 75 107 169 231 94 123 272 358 395
521 123 163 228 300 234 303 34 21 -16 25 -329 25 -279 0 -340 -2 -344 -14 -3
-7 -45 -65 -94 -127 -49 -63 -154 -199 -233 -304 -78 -104 -146 -191 -149
-192 -3 -1 -30 30 -59 70 -29 40 -82 110 -117 157 -124 164 -274 369 -285 389
-10 21 -17 21 -355 21 -224 0 -345 -4 -345 -10z"/>
<path d="M18122 735 c-19 -40 -15 -45 34 -45 l45 0 -27 35 c-32 42 -37 43 -52
10z"/>
</g>
</svg>
