<?xml version="1.0" encoding="utf-8" standalone="no"?>
<!DOCTYPE svg PUBLIC "-//W3C//DTD SVG 1.1//EN"
  "http://www.w3.org/Graphics/SVG/1.1/DTD/svg11.dtd">
<svg xmlns:xlink="http://www.w3.org/1999/xlink" width="549.3096pt" height="214.2pt" viewBox="0 0 549.3096 214.2" xmlns="http://www.w3.org/2000/svg" version="1.1">
 <metadata>
  <rdf:RDF xmlns:dc="http://purl.org/dc/elements/1.1/" xmlns:cc="http://creativecommons.org/ns#" xmlns:rdf="http://www.w3.org/1999/02/22-rdf-syntax-ns#">
   <cc:Work>
    <dc:type rdf:resource="http://purl.org/dc/dcmitype/StillImage"/>
    <dc:date>2026-03-11T22:58:13.560065</dc:date>
    <dc:format>image/svg+xml</dc:format>
    <dc:creator>
     <cc:Agent>
      <dc:title>Matplotlib v3.10.8, https://matplotlib.org/</dc:title>
     </cc:Agent>
    </dc:creator>
   </cc:Work>
  </rdf:RDF>
 </metadata>
 <defs>
  <style type="text/css">*{stroke-linejoin: round; stroke-linecap: butt}</style>
 </defs>
 <g id="figure_1">
  <g id="patch_1">
   <path d="M 0 214.2
L 549.3096 214.2
L 549.3096 0
L 0 0
z
" style="fill: #ffffff"/>
  </g>
  <g id="axes_1">
   <g id="patch_2">
    <path d="M 76.5576 137.592
C 83.240718 137.592 89.651013 134.936769 94.376691 130.211091
C 99.102369 125.485413 101.7576 119.075118 101.7576 112.392
C 101.7576 105.708882 99.102369 99.298587 94.376691 94.572909
C 89.651013 89.847231 83.240718 87.192 76.5576 87.192
C 69.874482 87.192 63.464187 89.847231 58.738509 94.572909
C 54.012831 99.298587 51.3576 105.708882 51.3576 112.392
C 51.3576 119.075118 54.012831 125.485413 58.738509 130.211091
C 63.464187 134.936769 69.874482 137.592 76.5576 137.592
L 76.5576 137.592
z
" clip-path="url(#p21b182cb0b)" style="fill: none; stroke: #000000; stroke-width: 2; stroke-linejoin: miter"/>
   </g>
   <g id="line2d_1">
    <path d="M 76.5576 175.392
L 76.5576 195.552
L 63.9576 195.552
L 89.1576 195.552
M 67.7376 201.6
L 85.3776 201.6
M 74.0376 207.648
L 79.0776 207.648
" clip-path="url(#p21b182cb0b)" style="fill: none; stroke: #000000; stroke-width: 2; stroke-linecap: round"/>
   </g>
   <g id="line2d_2">
    <path d="M 76.5576 175.392
L 76.5576 137.592
L 76.5576 137.592
M 76.5576 87.192
L 76.5576 87.192
L 76.5576 49.392
" clip-path="url(#p21b182cb0b)" style="fill: none; stroke: #000000; stroke-width: 2; stroke-linecap: round"/>
   </g>
   <g id="line2d_3">
    <path d="M 81.5976 124.992
L 71.5176 124.992
" clip-path="url(#p21b182cb0b)" style="fill: none; stroke: #000000; stroke-width: 2; stroke-linecap: round"/>
   </g>
   <g id="line2d_4">
    <path d="M 76.5576 104.832
L 76.5576 94.752
" clip-path="url(#p21b182cb0b)" style="fill: none; stroke: #000000; stroke-width: 2; stroke-linecap: round"/>
   </g>
   <g id="line2d_5">
    <path d="M 81.5976 99.792
L 71.5176 99.792
" clip-path="url(#p21b182cb0b)" style="fill: none; stroke: #000000; stroke-width: 2; stroke-linecap: round"/>
   </g>
   <g id="line2d_6">
    <path d="M 76.5576 49.392
L 114.3576 49.392
L 118.5576 36.792
L 126.9576 61.992
L 135.3576 36.792
L 143.7576 61.992
L 152.1576 36.792
L 160.5576 61.992
L 164.7576 49.392
L 202.5576 49.392
" clip-path="url(#p21b182cb0b)" style="fill: none; stroke: #000000; stroke-width: 2; stroke-linecap: round"/>
   </g>
   <g id="line2d_7">
    <path d="M 202.5576 49.392
L 202.5576 87.192
L 215.1576 91.392
L 189.9576 99.792
L 215.1576 108.192
L 189.9576 116.592
L 215.1576 124.992
L 189.9576 133.392
L 202.5576 137.592
L 202.5576 175.392
" clip-path="url(#p21b182cb0b)" style="fill: none; stroke: #000000; stroke-width: 2; stroke-linecap: round"/>
   </g>
   <g id="line2d_8">
    <path d="M 202.5576 175.392
L 202.5576 195.552
L 189.9576 195.552
L 215.1576 195.552
M 193.7376 201.6
L 211.3776 201.6
M 200.0376 207.648
L 205.0776 207.648
" clip-path="url(#p21b182cb0b)" style="fill: none; stroke: #000000; stroke-width: 2; stroke-linecap: round"/>
   </g>
   <g id="line2d_9">
    <path d="M 202.5576 49.392
L 240.3576 49.392
L 244.5576 36.792
L 252.9576 61.992
L 261.3576 36.792
L 269.7576 61.992
L 278.1576 36.792
L 286.5576 61.992
L 290.7576 49.392
L 328.5576 49.392
" clip-path="url(#p21b182cb0b)" style="fill: none; stroke: #000000; stroke-width: 2; stroke-linecap: round"/>
   </g>
   <g id="line2d_10">
    <path d="M 328.5576 49.392
L 328.5576 87.192
L 341.1576 91.392
L 315.9576 99.792
L 341.1576 108.192
L 315.9576 116.592
L 341.1576 124.992
L 315.9576 133.392
L 328.5576 137.592
L 328.5576 175.392
" clip-path="url(#p21b182cb0b)" style="fill: none; stroke: #000000; stroke-width: 2; stroke-linecap: round"/>
   </g>
   <g id="line2d_11">
    <path d="M 328.5576 175.392
L 328.5576 195.552
L 315.9576 195.552
L 341.1576 195.552
M 319.7376 201.6
L 337.3776 201.6
M 326.0376 207.648
L 331.0776 207.648
" clip-path="url(#p21b182cb0b)" style="fill: none; stroke: #000000; stroke-width: 2; stroke-linecap: round"/>
   </g>
   <g id="line2d_12">
    <path d="M 328.5576 49.392
L 366.3576 49.392
L 370.5576 36.792
L 378.9576 61.992
L 387.3576 36.792
L 395.7576 61.992
L 404.1576 36.792
L 412.5576 61.992
L 416.7576 49.392
L 454.5576 49.392
" clip-path="url(#p21b182cb0b)" style="fill: none; stroke: #000000; stroke-width: 2; stroke-linecap: round"/>
   </g>
   <g id="line2d_13">
    <path d="M 454.5576 49.392
L 454.5576 87.192
L 467.1576 91.392
L 441.9576 99.792
L 467.1576 108.192
L 441.9576 116.592
L 467.1576 124.992
L 441.9576 133.392
L 454.5576 137.592
L 454.5576 175.392
" clip-path="url(#p21b182cb0b)" style="fill: none; stroke: #000000; stroke-width: 2; stroke-linecap: round"/>
   </g>
   <g id="line2d_14">
    <path d="M 454.5576 175.392
L 454.5576 195.552
L 441.9576 195.552
L 467.1576 195.552
M 445.7376 201.6
L 463.3776 201.6
M 452.0376 207.648
L 457.0776 207.648
" clip-path="url(#p21b182cb0b)" style="fill: none; stroke: #000000; stroke-width: 2; stroke-linecap: round"/>
   </g>
   <g id="line2d_15">
    <path d="M 454.5576 49.392
L 492.3576 49.392
L 530.1576 49.392
" clip-path="url(#p21b182cb0b)" style="fill: none; stroke: #000000; stroke-width: 2; stroke-linecap: round"/>
   </g>
   <g id="line2d_16">
    <path d="M 530.1576 49.392
L 530.1576 87.192
L 542.7576 91.392
L 517.5576 99.792
L 542.7576 108.192
L 517.5576 116.592
L 542.7576 124.992
L 517.5576 133.392
L 530.1576 137.592
L 530.1576 175.392
" clip-path="url(#p21b182cb0b)" style="fill: none; stroke: #000000; stroke-width: 2; stroke-linecap: round"/>
   </g>
   <g id="line2d_17">
    <path d="M 530.1576 175.392
L 530.1576 195.552
L 517.5576 195.552
L 542.7576 195.552
M 521.3376 201.6
L 538.9776 201.6
M 527.6376 207.648
L 532.6776 207.648
" clip-path="url(#p21b182cb0b)" style="fill: none; stroke: #000000; stroke-width: 2; stroke-linecap: round"/>
   </g>
   <g id="text_1">
    <!-- V_REF -->
    <g transform="translate(18.544162 110.269969) scale(0.09 -0.09)">
     <defs>
      <path id="DejaVuSans-56" d="M 1831 0
L 50 4666
L 709 4666
L 2188 738
L 3669 4666
L 4325 4666
L 2547 0
L 1831 0
z
" transform="scale(0.015625)"/>
      <path id="DejaVuSans-5f" d="M 3263 -1063
L 3263 -1509
L -63 -1509
L -63 -1063
L 3263 -1063
z
" transform="scale(0.015625)"/>
      <path id="DejaVuSans-52" d="M 2841 2188
Q 3044 2119 3236 1894
Q 3428 1669 3622 1275
L 4263 0
L 3584 0
L 2988 1197
Q 2756 1666 2539 1819
Q 2322 1972 1947 1972
L 1259 1972
L 1259 0
L 628 0
L 628 4666
L 2053 4666
Q 2853 4666 3247 4331
Q 3641 3997 3641 3322
Q 3641 2881 3436 2590
Q 3231 2300 2841 2188
z
M 1259 4147
L 1259 2491
L 2053 2491
Q 2509 2491 2742 2702
Q 2975 2913 2975 3322
Q 2975 3731 2742 3939
Q 2509 4147 2053 4147
L 1259 4147
z
" transform="scale(0.015625)"/>
      <path id="DejaVuSans-45" d="M 628 4666
L 3578 4666
L 3578 4134
L 1259 4134
L 1259 2753
L 3481 2753
L 3481 2222
L 1259 2222
L 1259 531
L 3634 531
L 3634 0
L 628 0
L 628 4666
z
" transform="scale(0.015625)"/>
      <path id="DejaVuSans-46" d="M 628 4666
L 3309 4666
L 3309 4134
L 1259 4134
L 1259 2759
L 3109 2759
L 3109 2228
L 1259 2228
L 1259 0
L 628 0
L 628 4666
z
" transform="scale(0.015625)"/>
     </defs>
     <use xlink:href="#DejaVuSans-56"/>
     <use xlink:href="#DejaVuSans-5f" transform="translate(68.408203 0)"/>
     <use xlink:href="#DejaVuSans-52" transform="translate(118.408203 0)"/>
     <use xlink:href="#DejaVuSans-45" transform="translate(187.890625 0)"/>
     <use xlink:href="#DejaVuSans-46" transform="translate(251.074219 0)"/>
    </g>
    <!-- 8V -->
    <g transform="translate(34.434787 119.230594) scale(0.09 -0.09)">
     <defs>
      <path id="DejaVuSans-38" d="M 2034 2216
Q 1584 2216 1326 1975
Q 1069 1734 1069 1313
Q 1069 891 1326 650
Q 1584 409 2034 409
Q 2484 409 2743 651
Q 3003 894 3003 1313
Q 3003 1734 2745 1975
Q 2488 2216 2034 2216
z
M 1403 2484
Q 997 2584 770 2862
Q 544 3141 544 3541
Q 544 4100 942 4425
Q 1341 4750 2034 4750
Q 2731 4750 3128 4425
Q 3525 4100 3525 3541
Q 3525 3141 3298 2862
Q 3072 2584 2669 2484
Q 3125 2378 3379 2068
Q 3634 1759 3634 1313
Q 3634 634 3220 271
Q 2806 -91 2034 -91
Q 1263 -91 848 271
Q 434 634 434 1313
Q 434 1759 690 2068
Q 947 2378 1403 2484
z
M 1172 3481
Q 1172 3119 1398 2916
Q 1625 2713 2034 2713
Q 2441 2713 2670 2916
Q 2900 3119 2900 3481
Q 2900 3844 2670 4047
Q 2441 4250 2034 4250
Q 1625 4250 1398 4047
Q 1172 3844 1172 3481
z
" transform="scale(0.015625)"/>
     </defs>
     <use xlink:href="#DejaVuSans-38"/>
     <use xlink:href="#DejaVuSans-56" transform="translate(63.623047 0)"/>
    </g>
   </g>
   <g id="text_2">
    <!-- R_S1 -->
    <g transform="translate(128.460881 20.919656) scale(0.09 -0.09)">
     <defs>
      <path id="DejaVuSans-53" d="M 3425 4513
L 3425 3897
Q 3066 4069 2747 4153
Q 2428 4238 2131 4238
Q 1616 4238 1336 4038
Q 1056 3838 1056 3469
Q 1056 3159 1242 3001
Q 1428 2844 1947 2747
L 2328 2669
Q 3034 2534 3370 2195
Q 3706 1856 3706 1288
Q 3706 609 3251 259
Q 2797 -91 1919 -91
Q 1588 -91 1214 -16
Q 841 59 441 206
L 441 856
Q 825 641 1194 531
Q 1563 422 1919 422
Q 2459 422 2753 634
Q 3047 847 3047 1241
Q 3047 1584 2836 1778
Q 2625 1972 2144 2069
L 1759 2144
Q 1053 2284 737 2584
Q 422 2884 422 3419
Q 422 4038 858 4394
Q 1294 4750 2059 4750
Q 2388 4750 2728 4690
Q 3069 4631 3425 4513
z
" transform="scale(0.015625)"/>
      <path id="DejaVuSans-31" d="M 794 531
L 1825 531
L 1825 4091
L 703 3866
L 703 4441
L 1819 4666
L 2450 4666
L 2450 531
L 3481 531
L 3481 0
L 794 0
L 794 531
z
" transform="scale(0.015625)"/>
     </defs>
     <use xlink:href="#DejaVuSans-52"/>
     <use xlink:href="#DejaVuSans-5f" transform="translate(69.482422 0)"/>
     <use xlink:href="#DejaVuSans-53" transform="translate(119.482422 0)"/>
     <use xlink:href="#DejaVuSans-31" transform="translate(182.958984 0)"/>
    </g>
    <!-- 1000Ω -->
    <g transform="translate(124.666116 29.880281) scale(0.09 -0.09)">
     <defs>
      <path id="DejaVuSans-30" d="M 2034 4250
Q 1547 4250 1301 3770
Q 1056 3291 1056 2328
Q 1056 1369 1301 889
Q 1547 409 2034 409
Q 2525 409 2770 889
Q 3016 1369 3016 2328
Q 3016 3291 2770 3770
Q 2525 4250 2034 4250
z
M 2034 4750
Q 2819 4750 3233 4129
Q 3647 3509 3647 2328
Q 3647 1150 3233 529
Q 2819 -91 2034 -91
Q 1250 -91 836 529
Q 422 1150 422 2328
Q 422 3509 836 4129
Q 1250 4750 2034 4750
z
" transform="scale(0.015625)"/>
      <path id="DejaVuSans-3a9" d="M 4647 556
L 4647 0
L 2772 0
L 2772 556
Q 3325 859 3634 1378
Q 3944 1897 3944 2528
Q 3944 3278 3531 3731
Q 3119 4184 2444 4184
Q 1769 4184 1355 3729
Q 941 3275 941 2528
Q 941 1897 1250 1378
Q 1563 859 2119 556
L 2119 0
L 244 0
L 244 556
L 1241 556
Q 747 991 519 1456
Q 294 1922 294 2497
Q 294 3491 894 4106
Q 1491 4722 2444 4722
Q 3391 4722 3994 4106
Q 4594 3494 4594 2528
Q 4594 1922 4372 1459
Q 4150 997 3647 556
L 4647 556
z
" transform="scale(0.015625)"/>
     </defs>
     <use xlink:href="#DejaVuSans-31"/>
     <use xlink:href="#DejaVuSans-30" transform="translate(63.623047 0)"/>
     <use xlink:href="#DejaVuSans-30" transform="translate(127.246094 0)"/>
     <use xlink:href="#DejaVuSans-30" transform="translate(190.869141 0)"/>
     <use xlink:href="#DejaVuSans-3a9" transform="translate(254.492188 0)"/>
    </g>
   </g>
   <g id="text_3">
    <!-- Node 1 -->
    <g transform="translate(191.558616 42.480281) scale(0.09 -0.09)">
     <defs>
      <path id="DejaVuSans-4e" d="M 628 4666
L 1478 4666
L 3547 763
L 3547 4666
L 4159 4666
L 4159 0
L 3309 0
L 1241 3903
L 1241 0
L 628 0
L 628 4666
z
" transform="scale(0.015625)"/>
      <path id="DejaVuSans-6f" d="M 1959 3097
Q 1497 3097 1228 2736
Q 959 2375 959 1747
Q 959 1119 1226 758
Q 1494 397 1959 397
Q 2419 397 2687 759
Q 2956 1122 2956 1747
Q 2956 2369 2687 2733
Q 2419 3097 1959 3097
z
M 1959 3584
Q 2709 3584 3137 3096
Q 3566 2609 3566 1747
Q 3566 888 3137 398
Q 2709 -91 1959 -91
Q 1206 -91 779 398
Q 353 888 353 1747
Q 353 2609 779 3096
Q 1206 3584 1959 3584
z
" transform="scale(0.015625)"/>
      <path id="DejaVuSans-64" d="M 2906 2969
L 2906 4863
L 3481 4863
L 3481 0
L 2906 0
L 2906 525
Q 2725 213 2448 61
Q 2172 -91 1784 -91
Q 1150 -91 751 415
Q 353 922 353 1747
Q 353 2572 751 3078
Q 1150 3584 1784 3584
Q 2172 3584 2448 3432
Q 2725 3281 2906 2969
z
M 947 1747
Q 947 1113 1208 752
Q 1469 391 1925 391
Q 2381 391 2643 752
Q 2906 1113 2906 1747
Q 2906 2381 2643 2742
Q 2381 3103 1925 3103
Q 1469 3103 1208 2742
Q 947 2381 947 1747
z
" transform="scale(0.015625)"/>
      <path id="DejaVuSans-65" d="M 3597 1894
L 3597 1613
L 953 1613
Q 991 1019 1311 708
Q 1631 397 2203 397
Q 2534 397 2845 478
Q 3156 559 3463 722
L 3463 178
Q 3153 47 2828 -22
Q 2503 -91 2169 -91
Q 1331 -91 842 396
Q 353 884 353 1716
Q 353 2575 817 3079
Q 1281 3584 2069 3584
Q 2775 3584 3186 3129
Q 3597 2675 3597 1894
z
M 3022 2063
Q 3016 2534 2758 2815
Q 2500 3097 2075 3097
Q 1594 3097 1305 2825
Q 1016 2553 972 2059
L 3022 2063
z
" transform="scale(0.015625)"/>
      <path id="DejaVuSans-20" transform="scale(0.015625)"/>
     </defs>
     <use xlink:href="#DejaVuSans-4e"/>
     <use xlink:href="#DejaVuSans-6f" transform="translate(74.804688 0)"/>
     <use xlink:href="#DejaVuSans-64" transform="translate(135.986328 0)"/>
     <use xlink:href="#DejaVuSans-65" transform="translate(199.462891 0)"/>
     <use xlink:href="#DejaVuSans-20" transform="translate(260.986328 0)"/>
     <use xlink:href="#DejaVuSans-31" transform="translate(292.773438 0)"/>
    </g>
   </g>
   <g id="text_4">
    <!-- R_P1 -->
    <g transform="translate(163.011037 110.269969) scale(0.09 -0.09)">
     <defs>
      <path id="DejaVuSans-50" d="M 1259 4147
L 1259 2394
L 2053 2394
Q 2494 2394 2734 2622
Q 2975 2850 2975 3272
Q 2975 3691 2734 3919
Q 2494 4147 2053 4147
L 1259 4147
z
M 628 4666
L 2053 4666
Q 2838 4666 3239 4311
Q 3641 3956 3641 3272
Q 3641 2581 3239 2228
Q 2838 1875 2053 1875
L 1259 1875
L 1259 0
L 628 0
L 628 4666
z
" transform="scale(0.015625)"/>
     </defs>
     <use xlink:href="#DejaVuSans-52"/>
     <use xlink:href="#DejaVuSans-5f" transform="translate(69.482422 0)"/>
     <use xlink:href="#DejaVuSans-50" transform="translate(119.482422 0)"/>
     <use xlink:href="#DejaVuSans-31" transform="translate(179.785156 0)"/>
    </g>
    <!-- 2000Ω -->
    <g transform="translate(155.134631 119.230594) scale(0.09 -0.09)">
     <defs>
      <path id="DejaVuSans-32" d="M 1228 531
L 3431 531
L 3431 0
L 469 0
L 469 531
Q 828 903 1448 1529
Q 2069 2156 2228 2338
Q 2531 2678 2651 2914
Q 2772 3150 2772 3378
Q 2772 3750 2511 3984
Q 2250 4219 1831 4219
Q 1534 4219 1204 4116
Q 875 4013 500 3803
L 500 4441
Q 881 4594 1212 4672
Q 1544 4750 1819 4750
Q 2544 4750 2975 4387
Q 3406 4025 3406 3419
Q 3406 3131 3298 2873
Q 3191 2616 2906 2266
Q 2828 2175 2409 1742
Q 1991 1309 1228 531
z
" transform="scale(0.015625)"/>
     </defs>
     <use xlink:href="#DejaVuSans-32"/>
     <use xlink:href="#DejaVuSans-30" transform="translate(63.623047 0)"/>
     <use xlink:href="#DejaVuSans-30" transform="translate(127.246094 0)"/>
     <use xlink:href="#DejaVuSans-30" transform="translate(190.869141 0)"/>
     <use xlink:href="#DejaVuSans-3a9" transform="translate(254.492188 0)"/>
    </g>
   </g>
   <g id="text_5">
    <!-- R_S2 -->
    <g transform="translate(254.460881 20.919656) scale(0.09 -0.09)">
     <use xlink:href="#DejaVuSans-52"/>
     <use xlink:href="#DejaVuSans-5f" transform="translate(69.482422 0)"/>
     <use xlink:href="#DejaVuSans-53" transform="translate(119.482422 0)"/>
     <use xlink:href="#DejaVuSans-32" transform="translate(182.958984 0)"/>
    </g>
    <!-- 1000Ω -->
    <g transform="translate(250.666116 29.880281) scale(0.09 -0.09)">
     <use xlink:href="#DejaVuSans-31"/>
     <use xlink:href="#DejaVuSans-30" transform="translate(63.623047 0)"/>
     <use xlink:href="#DejaVuSans-30" transform="translate(127.246094 0)"/>
     <use xlink:href="#DejaVuSans-30" transform="translate(190.869141 0)"/>
     <use xlink:href="#DejaVuSans-3a9" transform="translate(254.492188 0)"/>
    </g>
   </g>
   <g id="text_6">
    <!-- Node 2 -->
    <g transform="translate(317.558616 42.480281) scale(0.09 -0.09)">
     <use xlink:href="#DejaVuSans-4e"/>
     <use xlink:href="#DejaVuSans-6f" transform="translate(74.804688 0)"/>
     <use xlink:href="#DejaVuSans-64" transform="translate(135.986328 0)"/>
     <use xlink:href="#DejaVuSans-65" transform="translate(199.462891 0)"/>
     <use xlink:href="#DejaVuSans-20" transform="translate(260.986328 0)"/>
     <use xlink:href="#DejaVuSans-32" transform="translate(292.773438 0)"/>
    </g>
   </g>
   <g id="text_7">
    <!-- R_P2 -->
    <g transform="translate(289.011037 110.315672) scale(0.09 -0.09)">
     <use xlink:href="#DejaVuSans-52"/>
     <use xlink:href="#DejaVuSans-5f" transform="translate(69.482422 0)"/>
     <use xlink:href="#DejaVuSans-50" transform="translate(119.482422 0)"/>
     <use xlink:href="#DejaVuSans-32" transform="translate(179.785156 0)"/>
    </g>
    <!-- 2000Ω -->
    <g transform="translate(281.134631 119.276297) scale(0.09 -0.09)">
     <use xlink:href="#DejaVuSans-32"/>
     <use xlink:href="#DejaVuSans-30" transform="translate(63.623047 0)"/>
     <use xlink:href="#DejaVuSans-30" transform="translate(127.246094 0)"/>
     <use xlink:href="#DejaVuSans-30" transform="translate(190.869141 0)"/>
     <use xlink:href="#DejaVuSans-3a9" transform="translate(254.492188 0)"/>
    </g>
   </g>
   <g id="text_8">
    <!-- R_S3 -->
    <g transform="translate(380.460881 20.919656) scale(0.09 -0.09)">
     <defs>
      <path id="DejaVuSans-33" d="M 2597 2516
Q 3050 2419 3304 2112
Q 3559 1806 3559 1356
Q 3559 666 3084 287
Q 2609 -91 1734 -91
Q 1441 -91 1130 -33
Q 819 25 488 141
L 488 750
Q 750 597 1062 519
Q 1375 441 1716 441
Q 2309 441 2620 675
Q 2931 909 2931 1356
Q 2931 1769 2642 2001
Q 2353 2234 1838 2234
L 1294 2234
L 1294 2753
L 1863 2753
Q 2328 2753 2575 2939
Q 2822 3125 2822 3475
Q 2822 3834 2567 4026
Q 2313 4219 1838 4219
Q 1578 4219 1281 4162
Q 984 4106 628 3988
L 628 4550
Q 988 4650 1302 4700
Q 1616 4750 1894 4750
Q 2613 4750 3031 4423
Q 3450 4097 3450 3541
Q 3450 3153 3228 2886
Q 3006 2619 2597 2516
z
" transform="scale(0.015625)"/>
     </defs>
     <use xlink:href="#DejaVuSans-52"/>
     <use xlink:href="#DejaVuSans-5f" transform="translate(69.482422 0)"/>
     <use xlink:href="#DejaVuSans-53" transform="translate(119.482422 0)"/>
     <use xlink:href="#DejaVuSans-33" transform="translate(182.958984 0)"/>
    </g>
    <!-- 1000Ω -->
    <g transform="translate(376.666116 29.880281) scale(0.09 -0.09)">
     <use xlink:href="#DejaVuSans-31"/>
     <use xlink:href="#DejaVuSans-30" transform="translate(63.623047 0)"/>
     <use xlink:href="#DejaVuSans-30" transform="translate(127.246094 0)"/>
     <use xlink:href="#DejaVuSans-30" transform="translate(190.869141 0)"/>
     <use xlink:href="#DejaVuSans-3a9" transform="translate(254.492188 0)"/>
    </g>
   </g>
   <g id="text_9">
    <!-- Node 3 -->
    <g transform="translate(443.558616 42.480281) scale(0.09 -0.09)">
     <use xlink:href="#DejaVuSans-4e"/>
     <use xlink:href="#DejaVuSans-6f" transform="translate(74.804688 0)"/>
     <use xlink:href="#DejaVuSans-64" transform="translate(135.986328 0)"/>
     <use xlink:href="#DejaVuSans-65" transform="translate(199.462891 0)"/>
     <use xlink:href="#DejaVuSans-20" transform="translate(260.986328 0)"/>
     <use xlink:href="#DejaVuSans-33" transform="translate(292.773438 0)"/>
    </g>
   </g>
   <g id="text_10">
    <!-- R_P3 -->
    <g transform="translate(415.011037 110.315672) scale(0.09 -0.09)">
     <use xlink:href="#DejaVuSans-52"/>
     <use xlink:href="#DejaVuSans-5f" transform="translate(69.482422 0)"/>
     <use xlink:href="#DejaVuSans-50" transform="translate(119.482422 0)"/>
     <use xlink:href="#DejaVuSans-33" transform="translate(179.785156 0)"/>
    </g>
    <!-- 2000Ω -->
    <g transform="translate(407.134631 119.276297) scale(0.09 -0.09)">
     <use xlink:href="#DejaVuSans-32"/>
     <use xlink:href="#DejaVuSans-30" transform="translate(63.623047 0)"/>
     <use xlink:href="#DejaVuSans-30" transform="translate(127.246094 0)"/>
     <use xlink:href="#DejaVuSans-30" transform="translate(190.869141 0)"/>
     <use xlink:href="#DejaVuSans-3a9" transform="translate(254.492188 0)"/>
    </g>
   </g>
   <g id="text_11">
    <!-- R_TERM -->
    <g transform="translate(476.561194 110.269969) scale(0.09 -0.09)">
     <defs>
      <path id="DejaVuSans-54" d="M -19 4666
L 3928 4666
L 3928 4134
L 2272 4134
L 2272 0
L 1638 0
L 1638 4134
L -19 4134
L -19 4666
z
" transform="scale(0.015625)"/>
      <path id="DejaVuSans-4d" d="M 628 4666
L 1569 4666
L 2759 1491
L 3956 4666
L 4897 4666
L 4897 0
L 4281 0
L 4281 4097
L 3078 897
L 2444 897
L 1241 4097
L 1241 0
L 628 0
L 628 4666
z
" transform="scale(0.015625)"/>
     </defs>
     <use xlink:href="#DejaVuSans-52"/>
     <use xlink:href="#DejaVuSans-5f" transform="translate(69.482422 0)"/>
     <use xlink:href="#DejaVuSans-54" transform="translate(119.482422 0)"/>
     <use xlink:href="#DejaVuSans-45" transform="translate(180.566406 0)"/>
     <use xlink:href="#DejaVuSans-52" transform="translate(243.75 0)"/>
     <use xlink:href="#DejaVuSans-4d" transform="translate(313.232422 0)"/>
    </g>
    <!-- 2000Ω -->
    <g transform="translate(482.734631 119.230594) scale(0.09 -0.09)">
     <use xlink:href="#DejaVuSans-32"/>
     <use xlink:href="#DejaVuSans-30" transform="translate(63.623047 0)"/>
     <use xlink:href="#DejaVuSans-30" transform="translate(127.246094 0)"/>
     <use xlink:href="#DejaVuSans-30" transform="translate(190.869141 0)"/>
     <use xlink:href="#DejaVuSans-3a9" transform="translate(254.492188 0)"/>
    </g>
   </g>
   <g id="patch_3">
    <path d="M 202.5576 53.172
C 203.560068 53.172 204.521612 52.773715 205.230464 52.064864
C 205.939315 51.356012 206.3376 50.394468 206.3376 49.392
C 206.3376 48.389532 205.939315 47.427988 205.230464 46.719136
C 204.521612 46.010285 203.560068 45.612 202.5576 45.612
C 201.555132 45.612 200.593588 46.010285 199.884736 46.719136
C 199.175885 47.427988 198.7776 48.389532 198.7776 49.392
C 198.7776 50.394468 199.175885 51.356012 199.884736 52.064864
C 200.593588 52.773715 201.555132 53.172 202.5576 53.172
z
" clip-path="url(#p21b182cb0b)" style="stroke: #000000; stroke-width: 2; stroke-linejoin: miter"/>
   </g>
   <g id="patch_4">
    <path d="M 328.5576 53.172
C 329.560068 53.172 330.521612 52.773715 331.230464 52.064864
C 331.939315 51.356012 332.3376 50.394468 332.3376 49.392
C 332.3376 48.389532 331.939315 47.427988 331.230464 46.719136
C 330.521612 46.010285 329.560068 45.612 328.5576 45.612
C 327.555132 45.612 326.593588 46.010285 325.884736 46.719136
C 325.175885 47.427988 324.7776 48.389532 324.7776 49.392
C 324.7776 50.394468 325.175885 51.356012 325.884736 52.064864
C 326.593588 52.773715 327.555132 53.172 328.5576 53.172
z
" clip-path="url(#p21b182cb0b)" style="stroke: #000000; stroke-width: 2; stroke-linejoin: miter"/>
   </g>
   <g id="patch_5">
    <path d="M 454.5576 53.172
C 455.560068 53.172 456.521612 52.773715 457.230464 52.064864
C 457.939315 51.356012 458.3376 50.394468 458.3376 49.392
C 458.3376 48.389532 457.939315 47.427988 457.230464 46.719136
C 456.521612 46.010285 455.560068 45.612 454.5576 45.612
C 453.555132 45.612 452.593588 46.010285 451.884736 46.719136
C 451.175885 47.427988 450.7776 48.389532 450.7776 49.392
C 450.7776 50.394468 451.175885 51.356012 451.884736 52.064864
C 452.593588 52.773715 453.555132 53.172 454.5576 53.172
z
" clip-path="url(#p21b182cb0b)" style="stroke: #000000; stroke-width: 2; stroke-linejoin: miter"/>
   </g>
  </g>
 </g>
 <defs>
  <clipPath id="p21b182cb0b">
   <rect x="0" y="0" width="549.3096" height="214.2"/>
  </clipPath>
 </defs>
</svg>
